<svg width="168" height="393" viewBox="0 0 168 393" fill="none" xmlns="http://www.w3.org/2000/svg">
<g opacity="0.6">
<path fill-rule="evenodd" clip-rule="evenodd" d="M83.1843 254.814C141.001 300.185 224.656 290.086 270.024 232.26C272.848 228.661 274.346 225.898 274.869 223.833C275.371 221.853 274.961 220.651 274.076 219.795C273.08 218.819 271.241 218.061 268.43 217.625C265.664 217.194 262.158 217.101 258.072 217.26C250.002 217.568 239.888 218.835 228.953 220.199L228.445 220.265C217.342 221.657 205.463 223.125 194.22 223.767C183 224.395 172.312 224.206 163.626 222.212C154.947 220.216 147.992 216.359 144.693 209.432C141.408 202.527 141.978 193.033 147.242 180.295C152.524 167.526 162.629 151.243 178.871 130.542C195.033 109.933 205.955 92.6174 212.627 78.216C219.304 63.7962 221.678 52.3836 220.888 43.5594C220.107 34.8028 216.208 28.5088 210.112 24.2028C203.962 19.8589 195.474 17.4624 185.463 16.7946C165.456 15.4464 139.898 21.0001 116.448 30.5722C92.9748 40.1509 71.8706 53.6432 60.6304 67.9739C15.2619 125.799 25.3589 209.446 83.1843 254.814ZM82.2952 255.936C140.742 301.794 225.294 291.585 271.144 233.141C288.247 211.344 261.885 214.646 228.824 218.773C173.227 225.727 98.6904 235.054 179.991 131.423C309.647 -33.8348 105.353 8.65097 59.5027 67.0952C13.6506 125.531 23.8592 210.084 82.2952 255.936Z" fill="#74604B" fill-opacity="0.4"/>
<path fill-rule="evenodd" clip-rule="evenodd" d="M85.0283 261.894C142.854 307.262 226.5 297.165 271.868 239.34C274.692 235.741 276.193 232.986 276.715 230.921C277.217 228.941 276.805 227.731 275.928 226.872C274.924 225.899 273.095 225.147 270.276 224.713C267.508 224.274 264.012 224.187 259.916 224.34C251.856 224.654 241.732 225.915 230.799 227.287L230.289 227.345C219.194 228.735 207.309 230.213 196.072 230.845C184.846 231.483 174.159 231.294 165.47 229.292C156.802 227.302 149.836 223.439 146.545 216.51C143.262 209.613 143.824 200.121 149.096 187.381C154.37 174.614 164.473 158.322 180.715 137.622C196.879 117.021 207.801 99.7055 214.471 85.2959C221.148 70.8761 223.524 59.4716 222.742 50.6453C221.96 41.8805 218.062 35.5946 211.964 31.2805C205.806 26.9388 197.32 24.5504 187.317 23.8804C167.31 22.5323 141.752 28.086 118.292 37.6521C94.827 47.2286 73.7168 60.7313 62.4744 75.0538C17.1059 132.879 27.2051 216.534 85.0283 261.894ZM84.1496 263.022C142.594 308.872 227.138 298.665 272.99 240.229C290.093 218.432 263.729 221.726 230.67 225.861C175.074 232.815 100.534 242.134 181.845 138.509C311.502 -26.7489 107.205 15.7287 61.3549 74.1729C15.4968 132.619 25.7054 217.172 84.1496 263.022Z" fill="#74604B" fill-opacity="0.4"/>
<path fill-rule="evenodd" clip-rule="evenodd" d="M86.8842 268.981C144.701 314.351 228.356 304.252 273.724 246.427C276.548 242.827 278.049 240.072 278.569 238C279.071 236.02 278.661 234.817 277.776 233.961C276.78 232.986 274.941 232.228 272.13 231.791C269.356 231.363 265.858 231.268 261.772 231.427C253.702 231.735 243.588 233.001 232.653 234.366L232.145 234.432C221.042 235.823 209.163 237.292 197.92 237.934C186.702 238.569 176.012 238.372 167.326 236.379C158.65 234.391 151.692 230.526 148.393 223.599C145.11 216.702 145.678 207.199 150.942 194.461C156.224 181.692 166.329 165.409 182.571 144.708C198.735 124.107 209.655 106.784 216.327 92.3825C223.004 77.9626 225.38 66.5582 224.588 57.7259C223.807 48.9692 219.908 42.6752 213.812 38.3693C207.662 34.0253 199.168 31.6391 189.163 30.961C169.158 29.621 143.598 35.1666 120.148 44.7387C96.6748 54.3174 75.5705 67.8097 64.3222 82.1425C18.9619 139.966 29.0589 223.612 86.8842 268.981ZM85.9973 270.11C144.442 315.96 228.994 305.752 274.844 247.308C291.939 225.513 265.585 228.813 232.518 232.95C176.927 239.894 102.39 249.221 183.691 145.589C313.347 -19.6684 109.053 22.8174 63.2027 81.2616C17.3527 139.706 27.551 224.252 85.9973 270.11Z" fill="#74604B" fill-opacity="0.4"/>
<path fill-rule="evenodd" clip-rule="evenodd" d="M88.7324 276.07C146.556 321.431 230.202 311.334 275.573 253.516C278.396 249.917 279.895 247.154 280.417 245.089C280.919 243.109 280.509 241.907 279.632 241.049C278.626 240.068 276.789 239.318 273.978 238.881C271.212 238.45 267.714 238.355 263.62 238.516C255.558 238.822 245.436 240.091 234.501 241.455L233.993 241.521C222.896 242.903 211.011 244.382 199.774 245.013C188.548 245.651 177.86 245.462 169.174 243.468C160.504 241.471 153.54 237.616 150.247 230.678C146.964 223.782 147.526 214.289 152.79 201.551C158.072 188.782 168.175 172.491 184.417 151.79C200.581 131.189 211.503 113.874 218.173 99.4642C224.85 85.0443 227.226 73.6399 226.444 64.8136C225.664 56.0569 221.764 49.7629 215.66 45.4591C209.508 41.107 201.022 38.7187 191.019 38.0487C171.012 36.7006 145.454 42.2543 121.997 51.8286C98.5207 61.3991 77.4187 74.8996 66.1785 89.2302C20.8078 147.047 30.907 230.702 88.7324 276.07ZM87.8515 277.19C146.298 323.048 230.842 312.842 276.692 254.397C293.795 232.6 267.431 235.895 234.372 240.029C178.776 246.984 104.236 256.302 185.539 152.679C315.195 -12.5785 110.909 29.9051 65.0486 88.3433C19.1987 146.788 29.4073 231.34 87.8515 277.19Z" fill="#74604B" fill-opacity="0.4"/>
<path fill-rule="evenodd" clip-rule="evenodd" d="M90.5761 283.151C148.401 328.52 232.056 318.42 277.416 260.597C280.248 256.996 281.749 254.241 282.269 252.168C282.771 250.188 282.361 248.986 281.476 248.13C280.48 247.154 278.643 246.404 275.83 245.96C273.056 245.531 269.56 245.444 265.472 245.595C257.402 245.903 247.288 247.17 236.355 248.542L235.845 248.6C224.742 249.992 212.855 251.463 201.62 252.102C190.402 252.738 179.712 252.541 171.026 250.547C162.35 248.56 155.392 244.694 152.093 237.767C148.81 230.871 149.38 221.376 154.644 208.638C159.926 195.869 170.029 179.577 186.263 158.879C202.435 138.276 213.357 120.96 220.027 106.551C226.704 92.1311 229.08 80.7266 228.29 71.9025C227.507 63.1377 223.608 56.8437 217.512 52.5377C211.362 48.1938 202.868 45.8076 192.865 45.1376C172.858 43.7895 147.3 49.3432 123.848 58.9071C100.375 68.4858 79.2706 81.9781 68.0222 96.3109C22.6619 154.134 32.7611 237.789 90.5761 283.151ZM89.6974 284.279C148.142 330.129 232.694 319.92 278.544 261.476C295.641 239.689 269.285 242.981 236.218 247.118C180.63 254.071 106.082 263.391 187.391 159.758C317.047 -5.49995 112.753 36.9859 66.9027 95.4301C21.0528 153.874 31.251 238.421 89.6974 284.279Z" fill="#74604B" fill-opacity="0.4"/>
<path fill-rule="evenodd" clip-rule="evenodd" d="M92.4307 290.237C150.256 335.606 233.903 325.509 279.271 267.683C282.094 264.084 283.593 261.321 284.116 259.256C284.617 257.276 284.208 256.074 283.33 255.216C282.326 254.243 280.487 253.485 277.676 253.048C274.91 252.617 271.412 252.522 267.318 252.683C259.256 252.989 249.135 254.258 238.199 255.622L237.692 255.688C226.597 257.078 214.71 258.549 203.475 259.189C192.246 259.818 181.559 259.629 172.872 257.635C164.202 255.638 157.239 251.783 153.947 244.853C150.663 237.949 151.224 228.456 156.489 215.718C161.77 202.949 171.875 186.666 188.118 165.965C204.28 145.356 215.201 128.041 221.874 113.639C228.55 99.2195 230.924 87.8069 230.135 78.9827C229.354 70.2261 225.463 63.9299 219.359 59.6261C213.209 55.2822 204.72 52.8857 194.718 52.2157C174.71 50.8675 149.152 56.4212 125.695 65.9955C102.221 75.5742 81.1171 89.0665 69.8769 103.397C24.5084 161.223 34.6054 244.869 92.4307 290.237ZM91.5498 291.357C149.988 337.217 234.541 327.009 280.39 268.564C297.494 246.767 271.131 250.07 238.071 254.196C182.474 261.151 107.937 270.478 189.237 166.846C318.894 1.58847 114.607 44.0721 68.7492 102.518C22.8971 160.954 33.1056 245.507 91.5498 291.357Z" fill="#74604B" fill-opacity="0.4"/>
<path fill-rule="evenodd" clip-rule="evenodd" d="M94.2785 297.326C152.102 342.686 235.756 332.587 281.117 274.764C283.948 271.163 285.441 268.41 285.972 266.343C286.473 264.363 286.061 263.152 285.176 262.296C284.18 261.321 282.343 260.571 279.532 260.135C276.756 259.698 273.26 259.611 269.164 259.764C261.104 260.078 250.988 261.336 240.047 262.711L239.546 262.767C228.442 264.159 216.558 265.637 205.32 266.269C194.102 266.905 183.415 266.716 174.726 264.714C166.05 262.726 159.092 258.861 155.793 251.934C152.51 245.037 153.08 235.543 158.344 222.805C163.618 210.038 173.729 193.744 189.963 173.046C206.136 152.443 217.057 135.127 223.728 120.718C230.404 106.298 232.78 94.8934 231.99 86.0692C231.208 77.3044 227.31 71.0186 221.212 66.7045C215.062 62.3605 206.568 59.9744 196.566 59.3044C176.558 57.9563 151 63.5099 127.549 73.0739C104.075 82.6526 82.973 96.1531 71.7224 110.478C26.3621 168.301 36.4613 251.955 94.2785 297.326ZM93.3976 298.446C151.842 344.296 236.386 334.089 282.246 275.651C299.341 253.856 272.985 257.148 239.918 261.285C184.33 268.237 109.782 277.558 191.091 173.925C320.75 8.67499 116.453 51.1526 70.6029 109.597C24.753 168.041 34.9534 252.596 93.3976 298.446Z" fill="#74604B" fill-opacity="0.4"/>
<path fill-rule="evenodd" clip-rule="evenodd" d="M96.1318 304.405C153.957 349.774 237.604 339.677 282.972 281.851C285.795 278.252 287.294 275.489 287.817 273.424C288.318 271.444 287.909 270.242 287.031 269.384C286.027 268.411 284.188 267.653 281.377 267.216C278.611 266.785 275.113 266.69 271.019 266.851C262.957 267.157 252.836 268.426 241.9 269.79L241.393 269.856C230.298 271.246 218.411 272.717 207.176 273.357C195.949 273.994 185.26 273.797 176.573 271.803C167.905 269.814 160.94 265.951 157.64 259.024C154.364 252.116 154.926 242.624 160.19 229.886C165.472 217.117 175.576 200.834 191.819 180.133C207.981 159.524 218.902 142.209 225.575 127.807C232.252 113.387 234.626 101.975 233.836 93.1506C233.055 84.3939 229.164 78.0977 223.06 73.794C216.91 69.4501 208.424 67.0617 198.419 66.3835C178.414 65.0436 152.853 70.5891 129.396 80.1634C105.922 89.7421 84.8181 103.234 73.5779 117.565C28.2095 175.39 38.3065 259.037 96.1318 304.405ZM95.2531 305.533C153.689 351.385 238.242 341.176 284.092 282.732C301.195 260.935 274.832 264.238 241.774 268.372C186.175 275.319 111.638 284.646 192.938 181.014C322.595 15.7563 118.308 58.24 72.4503 116.686C26.6003 175.131 36.8067 259.675 95.2531 305.533Z" fill="#74604B" fill-opacity="0.4"/>
<path fill-rule="evenodd" clip-rule="evenodd" d="M97.9782 311.493C155.801 356.854 239.456 346.754 284.818 288.939C287.642 285.34 289.14 282.577 289.671 280.51C290.173 278.53 289.763 277.328 288.878 276.472C287.871 275.491 286.043 274.738 283.232 274.302C280.458 273.873 276.96 273.778 272.863 273.931C264.804 274.245 254.69 275.512 243.747 276.878L243.248 276.942C232.142 278.326 220.257 279.805 209.02 280.436C197.802 281.072 187.115 280.883 178.428 278.889C169.75 276.894 162.794 273.037 159.493 266.101C156.21 259.205 156.78 249.71 162.044 236.972C167.318 224.205 177.429 207.911 193.663 187.213C209.835 166.61 220.749 149.297 227.419 134.887C234.104 120.465 236.472 109.063 235.69 100.237C234.91 91.4798 231.01 85.1858 224.914 80.8799C218.762 76.5278 210.268 74.1416 200.265 73.4716C180.258 72.1235 154.7 77.6772 131.242 87.2515C107.775 96.8199 86.6727 110.32 75.4244 124.653C30.0619 182.468 40.1611 266.123 97.9782 311.493ZM97.0974 312.613C155.542 358.463 240.088 348.265 285.946 289.818C303.041 268.023 276.685 271.315 243.618 275.452C188.021 282.407 113.482 291.725 194.793 188.1C324.449 22.8422 120.155 65.328 74.3027 123.764C28.4446 182.21 38.6532 266.763 97.0974 312.613Z" fill="#74604B" fill-opacity="0.4"/>
<path fill-rule="evenodd" clip-rule="evenodd" d="M99.8319 318.572C157.649 363.943 241.304 353.844 286.672 296.018C289.495 292.419 290.996 289.664 291.517 287.591C292.018 285.611 291.609 284.409 290.731 283.551C289.727 282.578 287.891 281.828 285.077 281.383C282.311 280.952 278.813 280.857 274.719 281.018C266.658 281.324 256.536 282.593 245.6 283.957L245.093 284.023C233.998 285.413 222.111 286.884 210.876 287.523C199.649 288.161 188.96 287.964 180.273 285.97C171.597 283.983 164.64 280.118 161.34 273.191C158.058 266.294 158.628 256.799 163.892 244.061C169.174 231.292 179.276 215.001 195.519 194.3C211.683 173.699 222.605 156.384 229.275 141.974C235.952 127.554 238.328 116.15 237.538 107.326C236.755 98.5609 232.856 92.2669 226.76 87.961C220.61 83.6171 212.124 81.2287 202.119 80.5505C182.106 79.2128 156.553 84.7561 133.096 94.3304C109.622 103.909 88.5182 117.401 77.278 131.732C31.9095 189.557 42.0087 273.212 99.8319 318.572ZM98.9532 319.7C157.389 365.552 241.942 355.343 287.792 296.899C304.897 275.11 278.532 278.405 245.474 282.539C189.877 289.494 115.338 298.812 196.638 195.181C326.295 29.9233 122.008 72.4069 76.1503 130.853C30.3004 189.298 40.5068 273.842 98.9532 319.7Z" fill="#74604B" fill-opacity="0.4"/>
<path fill-rule="evenodd" clip-rule="evenodd" d="M101.678 325.66C159.504 371.029 243.158 360.93 288.518 303.107C291.341 299.507 292.84 296.744 293.371 294.677C293.873 292.697 293.455 291.497 292.578 290.639C291.574 289.666 289.743 288.905 286.932 288.469C284.158 288.04 280.66 287.945 276.565 288.106C268.504 288.412 258.39 289.679 247.446 291.045L246.947 291.109C235.842 292.493 223.957 293.972 212.72 294.603C201.502 295.239 190.814 295.05 182.128 293.056C173.45 291.061 166.486 287.206 163.195 280.276C159.91 273.372 160.472 263.879 165.744 251.139C171.018 238.372 181.131 222.087 197.365 201.388C213.535 180.777 224.449 163.464 231.121 149.062C237.806 134.64 240.172 123.23 239.39 114.404C238.609 105.647 234.71 99.3529 228.614 95.047C222.454 90.697 213.968 88.3087 203.965 87.6387C183.958 86.2906 158.4 91.8443 134.942 101.419C111.477 110.995 90.3727 124.487 79.1243 138.82C33.764 196.643 43.8528 280.292 101.678 325.66ZM100.797 326.78C159.244 372.638 243.788 362.432 289.646 303.985C306.741 282.19 280.379 285.493 247.318 289.619C191.721 296.574 117.184 305.901 198.493 202.267C328.149 37.0093 123.855 79.4951 78.0048 137.939C32.1445 196.377 42.3531 280.93 100.797 326.78Z" fill="#74604B" fill-opacity="0.4"/>
<path fill-rule="evenodd" clip-rule="evenodd" d="M103.531 332.74C161.349 378.11 245.003 368.011 290.372 310.186C293.195 306.586 294.696 303.831 295.216 301.759C295.72 299.787 295.308 298.576 294.431 297.718C293.427 296.745 291.59 295.995 288.779 295.559C286.011 295.119 282.515 295.033 278.419 295.186C270.359 295.5 260.235 296.76 249.302 298.133L248.792 298.191C237.697 299.58 225.813 301.059 214.576 301.691C203.349 302.328 192.662 302.139 183.973 300.138C175.297 298.15 168.339 294.285 165.04 287.358C161.757 280.461 162.327 270.966 167.591 258.228C172.873 245.459 182.976 229.168 199.218 208.467C215.382 187.867 226.304 170.551 232.975 156.142C239.651 141.722 242.027 130.317 241.237 121.493C240.455 112.728 236.557 106.442 230.459 102.128C224.309 97.7843 215.823 95.396 205.821 94.726C185.805 93.3801 160.247 98.9337 136.796 108.498C113.322 118.076 92.2177 131.569 80.9775 145.899C35.609 203.725 45.7082 287.379 103.531 332.74ZM102.645 333.869C161.089 379.719 245.641 369.511 291.493 311.075C308.597 289.278 282.232 292.572 249.173 296.706C193.577 303.661 119.037 312.98 200.338 209.348C329.996 44.0988 125.708 86.5742 79.8498 145.021C33.9999 203.465 44.2085 288.017 102.645 333.869Z" fill="#74604B" fill-opacity="0.4"/>
</g>
</svg>
