<svg width="103" height="91" viewBox="0 0 103 91" fill="none" xmlns="http://www.w3.org/2000/svg">
<g opacity="0.6">
<path fill-rule="evenodd" clip-rule="evenodd" d="M53.9755 19.8297C58.3076 -10.525 37.2079 -38.6437 6.85075 -42.9734C4.96138 -43.2426 3.65028 -43.2077 2.79533 -42.9659C1.97527 -42.7341 1.62631 -42.3353 1.50168 -41.8367C1.35711 -41.2734 1.46678 -40.4509 1.8955 -39.3442C2.31675 -38.2549 3.01467 -36.9687 3.92446 -35.5255C5.71912 -32.674 8.28648 -29.2841 11.0607 -25.6175L11.1903 -25.448C14.0094 -21.7266 17.018 -17.741 19.5953 -13.8127C22.1627 -9.88934 24.3237 -5.98846 25.4155 -2.43404C26.5047 1.11789 26.5621 4.43551 24.7475 7.07266C22.9379 9.69984 19.3884 11.4746 13.6879 12.2298C7.97241 12.9851 -0.0187928 12.7308 -10.8864 11.1804C-21.7042 9.64002 -30.2388 9.30602 -36.8342 9.89925C-43.437 10.495 -48.0558 12.0179 -51.0793 14.1441C-54.0804 16.2528 -55.541 18.9747 -55.8252 22.0755C-56.1118 25.2037 -55.207 28.7706 -53.36 32.5269C-49.6735 40.037 -42.3353 48.113 -33.9852 54.5887C-25.6276 61.0719 -16.3502 65.8826 -8.82758 66.9544C21.5296 71.284 49.6459 50.1868 53.9755 19.8297ZM54.5662 19.9169C58.9432 -10.7667 37.6167 -39.1871 6.9355 -43.5616C-4.50793 -45.1943 2.18465 -36.3581 10.5722 -25.2735C24.6827 -6.63653 43.6014 18.3491 -10.8017 10.5922C-97.5584 -1.78098 -39.591 63.1707 -8.90983 67.5451C21.7688 71.9221 50.1892 50.5956 54.5662 19.9169Z" fill="#74604B"/>
<path fill-rule="evenodd" clip-rule="evenodd" d="M56.149 17.686C60.4786 -12.6711 39.3814 -40.7874 9.02428 -45.117C7.1349 -45.3862 5.8263 -45.3538 4.97134 -45.112C4.15128 -44.8802 3.79983 -44.4789 3.67271 -43.9829C3.53063 -43.4171 3.6403 -42.5995 4.07152 -41.4903C4.49028 -40.3986 5.18819 -39.1174 6.09799 -37.6692C7.89264 -34.8227 10.46 -31.4278 13.2367 -27.7637L13.3639 -27.5917C16.1805 -23.8727 19.194 -19.8871 21.7663 -15.9588C24.3387 -12.0355 26.4998 -8.1346 27.589 -4.57768C28.6783 -1.03074 28.7356 2.29187 26.9185 4.92653C25.1114 7.55121 21.5644 9.32842 15.8614 10.0812C10.1484 10.8389 2.15473 10.5872 -8.71292 9.03679C-19.5282 7.49388 -28.0628 7.15988 -34.6607 7.7556C-41.2635 8.35133 -45.8798 9.87181 -48.9058 11.9955C-51.9093 14.1067 -53.3675 16.8261 -53.6541 19.9294C-53.9383 23.06 -53.031 26.6244 -51.1865 30.3783C-47.5 37.8884 -40.1618 45.9644 -31.8117 52.4451C-23.4565 58.9258 -14.1742 63.7365 -6.65405 64.8108C23.7031 69.1404 51.8219 48.0407 56.149 17.686ZM56.7397 17.7683C61.1142 -12.9129 39.7902 -41.3308 9.11152 -45.7077C-2.33192 -47.3404 4.35817 -38.5017 12.7482 -27.4197C26.8587 -8.78266 45.7749 16.2054 -8.62817 8.44356C-95.3849 -3.92962 -37.42 61.0245 -6.7388 65.399C23.9449 69.776 52.3653 48.4495 56.7397 17.7683Z" fill="#74604B"/>
<path fill-rule="evenodd" clip-rule="evenodd" d="M58.3226 15.5378C62.6547 -14.8169 41.555 -42.9357 11.1978 -47.2653C9.30846 -47.5345 7.99986 -47.5021 7.14241 -47.2578C6.32235 -47.026 5.97339 -46.6272 5.84876 -46.1287C5.70419 -45.5653 5.81386 -44.7428 6.24259 -43.6361C6.66633 -42.5443 7.36176 -41.2607 8.27155 -39.8175C10.0662 -36.9659 12.6336 -33.576 15.4078 -29.9094L15.5374 -29.74C18.3565 -26.0185 21.3651 -22.0329 23.9424 -18.1046C26.5123 -14.1838 28.6708 -10.2804 29.7626 -6.72596C30.8543 -3.17652 30.9092 0.143596 29.0946 2.78075C27.2874 5.40543 23.7355 7.18265 18.035 7.9379C12.3195 8.69315 4.32829 8.4389 -6.53936 6.88852C-17.3547 5.34561 -25.8918 5.0141 -32.4871 5.60733C-39.09 6.20306 -43.7062 7.72354 -46.7322 9.8522C-49.7333 11.9609 -51.1939 14.6828 -51.4781 17.7836C-51.7647 20.9118 -50.855 24.4787 -49.0129 28.235C-45.3239 35.7426 -37.9883 43.8211 -29.6381 50.2968C-21.2805 56.78 -12.0031 61.5907 -4.478 62.665C25.8766 66.9921 53.993 45.8949 58.3226 15.5378ZM58.9158 15.6225C63.2903 -15.0587 41.9638 -43.4791 11.2826 -47.8535C-0.158357 -49.4837 6.53173 -40.65 14.9242 -29.5655C29.0298 -10.9284 47.9484 14.0572 -6.45462 6.30027C-93.2114 -6.0729 -35.2439 58.8788 -4.56275 63.2532C26.1184 67.6277 54.5388 46.3062 58.9158 15.6225Z" fill="#74604B"/>
<path fill-rule="evenodd" clip-rule="evenodd" d="M60.4982 13.3912C64.8253 -16.9634 43.7281 -45.0797 13.3734 -49.4118C11.4841 -49.681 10.173 -49.6461 9.318 -49.4043C8.49794 -49.1725 8.14898 -48.7737 8.02186 -48.2777C7.87729 -47.7094 7.98945 -46.8893 8.41818 -45.7826C8.83942 -44.6934 9.53485 -43.4097 10.4471 -41.964C12.2393 -39.115 14.8092 -35.7226 17.5834 -32.056L17.713 -31.8865C20.5271 -28.1651 23.5407 -24.1794 26.113 -20.2511C28.6853 -16.3278 30.8464 -12.4269 31.9382 -8.87248C33.0249 -5.32305 33.0847 -2.00293 31.2652 0.634217C29.458 3.2589 25.9111 5.03612 20.2106 5.79137C14.4951 6.54662 6.50139 6.29486 -4.36626 4.74448C-15.1816 3.20157 -23.7162 2.86757 -30.314 3.46329C-36.9169 4.05902 -41.5331 5.5795 -44.5591 7.70317C-47.5602 9.81189 -49.0208 12.5338 -49.3025 15.6371C-49.5916 18.7677 -48.6843 22.3321 -46.8398 26.086C-43.1533 33.5961 -35.8151 41.6721 -27.4625 48.1503C-19.1074 54.636 -9.82751 59.4442 -2.3049 60.516C28.0497 64.8481 56.1685 43.7484 60.4982 13.3912ZM61.0864 13.476C65.4634 -17.2077 44.1393 -45.6256 13.4582 -50.0001C2.01474 -51.6327 8.70482 -42.794 17.0949 -31.712C31.2053 -13.075 50.1215 11.9131 -4.27903 4.15374C-91.0358 -8.21943 -33.0708 56.7297 -2.38965 61.1092C28.2915 65.4837 56.7119 44.1572 61.0864 13.476Z" fill="#74604B"/>
<path fill-rule="evenodd" clip-rule="evenodd" d="M62.672 11.2478C67.0017 -19.1094 45.902 -47.2281 15.5473 -51.5553C13.6554 -51.827 12.3468 -51.7946 11.4894 -51.5503C10.6693 -51.3185 10.3204 -50.9197 10.1957 -50.4211C10.0512 -49.8578 10.1633 -49.0378 10.5896 -47.9286C11.0133 -46.8368 11.7112 -45.5556 12.6185 -44.1099C14.4132 -41.2584 16.9806 -37.8685 19.7573 -34.2044L19.8844 -34.0324C22.7035 -30.311 25.7146 -26.3229 28.2894 -22.3971C30.8592 -18.4762 33.0178 -14.5729 34.1096 -11.0184C35.2013 -7.469 35.2561 -4.14888 33.4416 -1.51173C31.6344 1.11295 28.085 2.88767 22.3845 3.64292C16.669 4.39818 8.67527 4.14642 -2.18989 2.59853C-13.0077 1.05313 -21.5423 0.719126 -28.1401 1.31485C-34.743 1.91058 -39.3592 3.43106 -42.3827 5.55722C-45.3863 7.66844 -46.847 10.3903 -47.1311 13.4911C-47.4178 16.6193 -46.508 20.1862 -44.6635 23.94C-40.9769 31.4502 -33.6388 39.5261 -25.2911 46.0043C-16.9335 52.4875 -7.65611 57.2982 -0.131014 58.3725C30.2236 62.6996 58.3424 41.5999 62.672 11.2478ZM63.2628 11.33C67.6373 -19.3511 46.3107 -47.7715 15.6296 -52.146C4.19112 -53.7787 10.8787 -44.9425 19.2712 -33.8579C33.3792 -15.2234 52.2979 9.76719 -2.10763 2.00779C-88.8644 -10.3654 -30.8969 54.5863 -0.215764 58.9608C30.4654 63.3352 58.8858 42.0137 63.2628 11.33Z" fill="#74604B"/>
<path fill-rule="evenodd" clip-rule="evenodd" d="M64.8458 9.09925C69.1754 -21.2579 48.0782 -49.3742 17.7211 -53.7038C15.8317 -53.973 14.5206 -53.9381 13.6657 -53.6963C12.8456 -53.4645 12.4966 -53.0657 12.3695 -52.5697C12.2274 -52.0039 12.3371 -51.1813 12.7658 -50.0746C13.1871 -48.9853 13.8825 -47.7017 14.7948 -46.256C16.587 -43.407 19.1568 -40.0145 21.9311 -36.348L22.0607 -36.1785C24.8773 -32.4595 27.8883 -28.4714 30.4632 -24.5456C33.033 -20.6198 35.1941 -16.7189 36.2858 -13.1645C37.3726 -9.61504 37.4324 -6.29493 35.6153 -3.66027C33.8057 -1.03309 30.2588 0.744123 24.5582 1.49937C18.8427 2.25463 10.8515 2.00038 -0.016116 0.449996C-10.8339 -1.09042 -19.3685 -1.42442 -25.9639 -0.83119C-32.5667 -0.235464 -37.1855 1.2875 -40.209 3.41367C-43.21 5.5224 -44.6732 8.2418 -44.9548 11.3451C-45.2415 14.4733 -44.3367 18.0401 -42.4922 21.794C-38.8056 29.3041 -31.4675 37.3801 -23.1149 43.8583C-14.7572 50.3415 -5.47985 55.1522 2.04276 56.224C32.3999 60.5536 60.5162 39.4564 64.8458 9.09925ZM65.4341 9.184C69.8135 -21.4972 48.487 -49.9176 17.8058 -54.292C6.3624 -55.9247 13.055 -47.0885 21.4425 -36.004C35.553 -17.367 54.4717 7.61866 0.0686309 -0.138253C-86.6881 -12.5114 -28.7232 52.4377 1.9605 56.8147C32.6392 61.1917 61.0596 39.8652 65.4341 9.184Z" fill="#74604B"/>
<path fill-rule="evenodd" clip-rule="evenodd" d="M67.0215 6.95284C71.3487 -23.4018 50.249 -51.5206 19.8943 -55.8477C18.0025 -56.1194 16.6963 -56.0845 15.8389 -55.8452C15.0188 -55.6134 14.6674 -55.2121 14.5428 -54.7136C14.3982 -54.1503 14.5104 -53.3302 14.9391 -52.2235C15.3603 -51.1293 16.0583 -49.8481 16.968 -48.3999C18.7627 -45.5534 21.3276 -42.161 24.1068 -38.4944L24.2314 -38.3249C27.0505 -34.6035 30.0641 -30.6178 32.6364 -26.6895C35.2063 -22.7687 37.3673 -18.8678 38.4566 -15.3109C39.5483 -11.7615 39.6032 -8.44133 37.7886 -5.80418C35.9814 -3.1795 32.432 -1.40478 26.7315 -0.649526C21.0185 0.108217 13.0223 -0.146032 2.15713 -1.69392C-8.66067 -3.23932 -17.1953 -3.57333 -23.7931 -2.9776C-30.396 -2.38187 -35.0122 -0.861404 -38.0357 1.26477C-41.0393 3.37599 -42.4974 6.09539 -42.7841 9.19866C-43.0707 12.3268 -42.1609 15.8937 -40.3164 19.6476C-36.6299 27.1577 -29.2918 35.2337 -20.9441 41.7119C-12.5865 48.1951 -3.3066 53.0033 4.216 54.0801C34.5706 58.4072 62.6894 37.3075 67.0215 6.95284ZM67.6098 7.03759C71.9843 -23.6436 50.6603 -52.0615 19.9791 -56.441C8.53814 -58.0711 15.2257 -49.2349 23.6182 -38.1504C37.7263 -19.5159 56.6449 5.47474 2.23939 -2.28466C-84.5149 -14.6603 -26.5499 50.2938 4.13125 54.6683C34.8124 59.0428 63.2353 37.7188 67.6098 7.03759Z" fill="#74604B"/>
<path fill-rule="evenodd" clip-rule="evenodd" d="M69.1925 4.80694C73.5221 -25.5502 52.4249 -53.6665 22.0678 -57.9961C20.1784 -58.2653 18.8673 -58.2304 18.0123 -57.9886C17.1923 -57.7568 16.8433 -57.358 16.7162 -56.862C16.5741 -56.2962 16.6838 -55.4736 17.1125 -54.3669C17.5338 -53.2777 18.2292 -51.994 19.1415 -50.5483C20.9337 -47.6993 23.5035 -44.3069 26.2777 -40.6403L26.4074 -40.4708C29.224 -36.7518 32.235 -32.7637 34.8098 -28.8379C37.3822 -24.9146 39.5408 -21.0112 40.6325 -17.4568C41.7218 -13.9098 41.7791 -10.5872 39.9645 -7.95009C38.1524 -5.3254 34.6055 -3.54819 28.9049 -2.79294C23.1894 -2.03769 15.1982 -2.29193 4.33057 -3.84231C-6.48723 -5.38272 -15.0218 -5.71673 -21.6172 -5.1235C-28.22 -4.52777 -32.8388 -3.0048 -35.8623 -0.878635C-38.8634 1.23009 -40.3265 3.9495 -40.6082 7.05276C-40.8948 10.1809 -39.9875 13.7453 -38.1455 17.5017C-34.4565 25.0093 -27.1208 33.0878 -18.7682 39.566C-10.4105 46.0492 -1.13316 50.8599 6.38945 51.9317C36.7466 56.2613 64.8629 35.1641 69.1925 4.80694ZM69.7832 4.88919C74.1602 -25.7895 52.8337 -54.2099 22.1525 -58.5844C10.7091 -60.217 17.4017 -51.3808 25.7917 -40.2988C39.8997 -21.6593 58.8184 3.32635 4.41532 -4.43056C-82.3414 -16.8037 -24.3765 48.1454 6.30719 52.5224C36.9884 56.8969 65.4063 35.5729 69.7832 4.88919Z" fill="#74604B"/>
<path fill-rule="evenodd" clip-rule="evenodd" d="M71.3682 2.66118C75.6953 -27.6935 54.5956 -55.8123 24.2435 -60.1419C22.3541 -60.4111 21.043 -60.3762 20.1856 -60.1369C19.3655 -59.9051 19.0165 -59.5063 18.8919 -59.0077C18.7473 -58.4394 18.857 -57.6219 19.2857 -56.5152C19.7095 -55.4234 20.4049 -54.1397 21.3147 -52.6915C23.1093 -49.845 25.6767 -46.4551 28.4534 -42.786L28.5806 -42.619C31.3972 -38.8951 34.4107 -34.9095 36.9831 -30.9812C39.5529 -27.0603 41.714 -23.1595 42.8057 -19.605C43.895 -16.0531 43.9523 -12.7355 42.1352 -10.0958C40.3281 -7.47116 36.7787 -5.69644 31.0781 -4.94119C25.3651 -4.18344 17.3689 -4.43768 6.50378 -5.98558C-4.31402 -7.53097 -12.8461 -7.86248 -19.444 -7.26676C-26.0493 -6.67353 -30.6631 -5.15056 -33.6891 -3.02688C-36.6901 -0.918157 -38.1508 1.80374 -38.435 4.90451C-38.7241 8.03519 -37.8143 11.6021 -35.9698 15.3559C-32.2833 22.866 -24.9451 30.942 -16.5925 37.4202C-8.23984 43.9034 1.04004 48.7116 8.56514 49.7859C38.9173 54.1155 67.0361 33.0158 71.3682 2.66118ZM71.9564 2.74593C76.3309 -27.9352 55.0094 -56.3556 24.3257 -60.7326C12.8848 -62.3628 19.5724 -53.5266 27.9649 -42.4421C42.0754 -23.805 60.9916 1.18308 6.58853 -6.57881C-80.1682 -18.952 -22.2008 45.9997 8.4779 50.3767C39.1616 54.7536 67.582 33.4271 71.9564 2.74593Z" fill="#74604B"/>
<path fill-rule="evenodd" clip-rule="evenodd" d="M73.5397 0.514947C77.8718 -29.8397 56.7721 -57.9585 26.415 -62.2881C24.5256 -62.5573 23.217 -62.5249 22.3596 -62.2806C21.5395 -62.0488 21.1906 -61.65 21.0634 -61.154C20.9214 -60.5882 21.0335 -59.7681 21.4598 -58.6589C21.881 -57.5697 22.5764 -56.286 23.4887 -54.8403C25.2809 -51.9913 27.8507 -48.5989 30.625 -44.9323L30.7546 -44.7628C33.5712 -41.0438 36.5822 -37.0557 39.1571 -33.1299C41.7294 -29.2066 43.888 -25.3032 44.9797 -21.7488C46.0715 -18.1993 46.1263 -14.8792 44.3117 -12.2421C42.5046 -9.61739 38.9552 -7.84267 33.2546 -7.08742C27.5392 -6.33217 19.5455 -6.58392 8.6778 -8.1343C-2.1375 -9.67721 -10.6721 -10.0112 -17.27 -9.41549C-23.8728 -8.81976 -28.4891 -7.29928 -31.5126 -5.17312C-34.5161 -3.0619 -35.9768 -0.340002 -36.2609 2.76077C-36.5476 5.88895 -35.6403 9.45334 -33.7983 13.2097C-30.1068 20.7198 -22.7736 28.7958 -14.4209 35.274C-6.06332 41.7572 3.21407 46.5679 10.7367 47.6397C41.0938 51.9693 69.2126 30.8696 73.5397 0.514947ZM74.1305 0.597202C78.5074 -30.0815 57.1809 -58.5019 26.4998 -62.8764C15.0588 -64.5115 21.7489 -55.6728 30.1389 -44.5908C44.2494 -25.9538 63.1656 -0.965646 8.76255 -8.72255C-77.9942 -21.0957 -20.0292 43.8534 10.6544 48.2304C41.3356 52.6049 69.7535 31.2809 74.1305 0.597202Z" fill="#74604B"/>
<path fill-rule="evenodd" clip-rule="evenodd" d="M75.7161 -1.63154C80.0457 -31.9887 58.946 -60.1075 28.5914 -64.4346C26.702 -64.7038 25.3909 -64.6689 24.5335 -64.4296C23.7134 -64.1978 23.3669 -63.7965 23.2398 -63.3005C23.0977 -62.7346 23.2049 -61.9146 23.6336 -60.8079C24.0574 -59.7161 24.7528 -58.4325 25.6651 -56.9868C27.4573 -54.1377 30.0246 -50.7478 32.8013 -47.0787L32.9285 -46.9117C35.7451 -43.1878 38.7586 -39.2022 41.331 -35.2739C43.9008 -31.3531 46.0619 -27.4522 47.1536 -23.8978C48.2429 -20.3458 48.3027 -17.0257 46.4856 -14.3911C44.676 -11.7639 41.129 -9.98666 35.426 -9.23391C29.713 -8.47616 21.7193 -8.7329 10.8542 -10.2808C0.0338871 -11.8237 -8.49822 -12.1552 -15.0936 -11.562C-21.6989 -10.9687 -26.3152 -9.44328 -29.3412 -7.3196C-32.3422 -5.21087 -33.8029 -2.48898 -34.087 0.611789C-34.3737 3.74496 -33.4664 7.30935 -31.6219 11.0632C-27.9354 18.5733 -20.5972 26.6493 -12.2446 33.1275C-3.88944 39.6082 5.38794 44.4189 12.913 45.4932C43.2677 49.8203 71.3865 28.7256 75.7161 -1.63154ZM76.3043 -1.54679C80.6813 -32.2305 59.3573 -60.6484 28.6736 -65.0253C17.2327 -66.6555 23.9253 -57.8193 32.3128 -46.7348C46.4233 -28.0978 65.342 -3.11213 10.9364 -10.8715C-75.8203 -23.2447 -17.8529 41.707 12.8283 46.0814C43.5095 50.4609 71.9299 29.1344 76.3043 -1.54679Z" fill="#74604B"/>
<path fill-rule="evenodd" clip-rule="evenodd" d="M77.8866 -3.77753C82.2187 -34.1322 61.119 -62.251 30.7619 -66.5806C28.8725 -66.8498 27.5639 -66.8174 26.7064 -66.5731C25.8889 -66.3438 25.5374 -65.9425 25.4103 -65.4465C25.2682 -64.8806 25.3804 -64.0606 25.8091 -62.9539C26.2279 -61.8621 26.9258 -60.5809 27.8356 -59.1328C29.6302 -56.2862 32.1976 -52.8913 34.9743 -49.2272L35.1015 -49.0553C37.9181 -45.3363 40.9316 -41.3507 43.5039 -37.4224C46.0763 -33.4991 48.2373 -29.5982 49.3266 -26.0413C50.4184 -22.4918 50.4732 -19.1717 48.6586 -16.5346C46.8515 -13.9099 43.302 -12.1352 37.6015 -11.3799C31.886 -10.6247 23.8923 -10.8764 13.0247 -12.4268C2.20937 -13.9697 -6.32523 -14.3037 -12.9231 -13.708C-19.5259 -13.1122 -24.1422 -11.5918 -27.1657 -9.46559C-30.1693 -7.35438 -31.6274 -4.63498 -31.9141 -1.53171C-32.2007 1.59647 -31.2934 5.16086 -29.4489 8.91469C-25.7599 16.4273 -18.4217 24.5033 -10.0741 30.9815C-1.71645 37.4647 7.56093 42.2754 15.0835 43.3472C45.4407 47.6768 73.5595 26.5771 77.8866 -3.77753ZM78.4798 -3.69279C82.8543 -34.374 61.5278 -62.7944 30.8491 -67.1713C19.4057 -68.804 26.0958 -59.9653 34.4858 -48.8833C48.5963 -30.2462 67.5125 -5.25813 13.1094 -13.015C-73.6448 -25.3907 -15.6824 39.561 15.0013 43.9379C45.6825 48.3124 74.1029 26.9859 78.4798 -3.69279Z" fill="#74604B"/>
</g>
</svg>
