<svg width="69" height="66" viewBox="0 0 69 66" fill="none" xmlns="http://www.w3.org/2000/svg">
<g opacity="0.6">
<path fill-rule="evenodd" clip-rule="evenodd" d="M34.3953 106.337C58.5171 125.266 93.4185 121.053 112.347 96.9276C113.524 95.4259 114.15 94.273 114.368 93.4117C114.577 92.5856 114.406 92.084 114.037 91.7268C113.621 91.32 112.854 91.0037 111.681 90.8216C110.527 90.6418 109.065 90.6031 107.36 90.6694C103.993 90.7979 99.7736 91.3263 95.2111 91.8956L94.9995 91.9231C90.3671 92.5038 85.4112 93.1164 80.7205 93.3843C76.0391 93.6461 71.5803 93.5672 67.9562 92.7354C64.3355 91.9028 61.4337 90.2936 60.0572 87.4036C58.6868 84.5228 58.9245 80.5615 61.1207 75.2471C63.3244 69.9197 67.5402 63.1263 74.3167 54.4898C81.0596 45.8915 85.6162 38.6673 88.4001 32.659C91.1856 26.6429 92.1761 21.8814 91.8465 18.1999C91.5208 14.5466 89.8939 11.9207 87.3507 10.1242C84.7849 8.31184 81.2435 7.31199 77.0669 7.03338C68.7197 6.47093 58.0566 8.78798 48.2734 12.7816C38.48 16.7779 29.6751 22.407 24.9856 28.3858C6.05747 52.5111 10.27 87.4091 34.3953 106.337ZM34.0243 106.805C58.4087 125.938 93.6847 121.679 112.814 97.2951C119.949 88.2011 108.951 89.5789 95.1575 91.3005C71.9621 94.202 40.8646 98.0933 74.7838 54.8573C128.878 -14.0896 43.6441 3.6358 24.5151 28.0192C5.38521 52.3993 9.64432 87.6753 34.0243 106.805Z" fill="#74604B"/>
<path fill-rule="evenodd" clip-rule="evenodd" d="M35.1646 109.291C59.2898 128.219 94.1879 124.007 113.116 99.8815C114.294 98.3798 114.92 97.2303 115.138 96.369C115.347 95.5429 115.176 95.0379 114.81 94.6798C114.391 94.2739 113.628 93.9601 112.452 93.7789C111.297 93.5957 109.838 93.5595 108.129 93.6233C104.767 93.7543 100.543 94.2802 95.9813 94.8529L95.7688 94.877C91.1398 95.4568 86.1814 96.0738 81.4932 96.3373C76.8093 96.6034 72.3505 96.5245 68.7255 95.6893C65.1092 94.8592 62.203 93.2475 60.8299 90.3566C59.4604 87.4792 59.6948 83.5189 61.8944 78.2035C64.0946 72.877 68.3095 66.0802 75.086 57.4437C81.8299 48.8488 86.3864 41.6246 89.1694 35.6129C91.9549 29.5968 92.9463 24.8387 92.6201 21.1563C92.2936 17.4996 90.6676 14.877 88.1234 13.0772C85.5542 11.2657 82.0137 10.2693 77.8405 9.98978C69.4933 9.42732 58.8302 11.7444 49.0427 15.7355C39.2527 19.7309 30.4453 25.3643 25.7549 31.3397C6.82678 55.465 11.0403 90.3664 35.1646 109.291ZM34.798 109.762C59.1814 128.891 94.4541 124.632 113.584 100.252C120.72 91.1584 109.72 92.5328 95.9277 94.2578C72.7323 97.1593 41.6339 101.047 75.5574 57.8137C129.651 -11.1333 44.4168 6.58879 25.2878 30.9722C6.15544 55.3566 10.4145 90.6326 34.798 109.762Z" fill="#74604B"/>
<path fill-rule="evenodd" clip-rule="evenodd" d="M35.9388 112.248C60.0607 131.177 94.9621 126.963 113.89 102.838C115.068 101.336 115.694 100.187 115.911 99.3222C116.121 98.4961 115.95 97.9945 115.58 97.6373C115.165 97.2305 114.398 96.9142 113.225 96.7321C112.068 96.5532 110.608 96.5136 108.903 96.5799C105.537 96.7084 101.317 97.2368 96.7547 97.8061L96.5431 97.8336C91.9107 98.4143 86.9547 99.027 82.2641 99.2948C77.5836 99.56 73.1239 99.4777 69.4998 98.6459C65.88 97.8167 62.9773 96.2041 61.6007 93.3141C60.2313 90.4367 60.4681 86.4721 62.6643 81.1576C64.868 75.8302 69.0838 69.0368 75.8603 60.4003C82.6041 51.8054 87.1598 44.5778 89.9437 38.5695C92.7292 32.5534 93.7206 27.7953 93.3901 24.1104C93.0644 20.4571 91.4375 17.8311 88.8942 16.0347C86.3285 14.2223 82.7846 13.2268 78.6105 12.9439C70.2642 12.3848 59.6002 14.6985 49.817 18.6921C40.0235 22.6884 31.2187 28.3175 26.5258 34.2973C7.60104 58.4216 11.8136 93.3196 35.9388 112.248ZM35.5688 112.719C59.9523 131.848 95.2283 127.589 114.357 103.206C121.49 94.1125 110.494 95.4894 96.6986 97.2153C73.5057 100.113 42.4081 104.004 76.3273 60.7678C130.421 -8.17915 45.1877 9.5463 26.0587 33.9297C6.9297 58.3132 11.1845 93.5867 35.5688 112.719Z" fill="#74604B"/>
<path fill-rule="evenodd" clip-rule="evenodd" d="M36.71 115.206C60.8343 134.13 95.7324 129.918 114.661 105.796C115.839 104.294 116.465 103.141 116.683 102.28C116.892 101.454 116.721 100.952 116.355 100.594C115.935 100.185 115.169 99.872 113.996 99.6899C112.842 99.5101 111.383 99.4705 109.675 99.5378C106.311 99.6653 102.088 100.195 97.5258 100.764L97.3142 100.791C92.6843 101.368 87.7259 101.985 83.0377 102.248C78.3538 102.514 73.895 102.436 70.2709 101.604C66.6537 100.77 63.7484 99.162 62.3744 96.2676C61.0049 93.3902 61.2393 89.4299 63.4355 84.1155C65.6391 78.7881 69.854 71.9912 76.6305 63.3547C83.3744 54.7599 87.9309 47.5357 90.7139 41.5239C93.4994 35.5078 94.4908 30.7498 94.1646 27.0674C93.839 23.414 92.2121 20.7881 89.6654 18.9925C87.0987 17.1768 83.5582 16.1803 79.385 15.9008C71.0378 15.3384 60.3747 17.6554 50.5881 21.6499C40.7938 25.6428 31.9898 31.2753 27.3003 37.2542C8.37127 61.376 12.5847 96.2775 36.71 115.206ZM36.3425 115.673C60.7268 134.805 95.9995 130.547 115.128 106.163C122.264 97.0694 111.265 98.4439 97.4722 100.169C74.2768 103.07 43.1784 106.958 77.0985 63.7257C131.192 -5.2213 45.9622 12.5032 26.8289 36.8842C7.69993 61.2676 11.959 96.5437 36.3425 115.673Z" fill="#74604B"/>
<path fill-rule="evenodd" clip-rule="evenodd" d="M37.4792 118.16C61.6044 137.088 96.5059 132.874 115.431 108.75C116.612 107.248 117.238 106.098 117.455 105.233C117.665 104.407 117.494 103.906 117.124 103.548C116.709 103.142 115.942 102.829 114.769 102.643C113.611 102.464 112.153 102.428 110.447 102.491C107.08 102.62 102.861 103.148 98.2993 103.721L98.0868 103.745C93.4544 104.325 88.4951 104.939 83.8078 105.206C79.1274 105.471 74.6676 105.389 71.0436 104.557C67.4238 103.728 64.5211 102.115 63.1445 99.2252C61.775 96.3478 62.0128 92.3866 64.209 87.0722C66.4127 81.7448 70.6275 74.9479 77.4006 66.3123C84.1479 57.7166 88.7044 50.4924 91.4875 44.4806C94.273 38.4645 95.2643 33.7065 94.9348 30.025C94.6082 26.3682 92.9813 23.7423 90.438 21.9458C87.8722 20.1335 84.3283 19.1379 80.1552 18.8584C71.8079 18.296 61.1449 20.613 51.3607 24.6032C41.5673 28.5995 32.7624 34.2286 28.0695 40.2084C9.1448 64.3327 13.3583 99.2342 37.4792 118.16ZM37.1126 118.63C61.496 137.759 96.7721 133.5 115.901 109.117C123.034 100.027 112.038 101.401 98.2423 103.126C75.0503 106.027 43.9485 109.916 77.8711 66.6789C131.965 -2.26801 46.7315 15.4574 27.6025 39.8409C8.47346 64.2243 12.7282 99.4979 37.1126 118.63Z" fill="#74604B"/>
<path fill-rule="evenodd" clip-rule="evenodd" d="M38.253 121.116C62.3782 140.044 97.2762 135.832 116.204 111.707C117.382 110.205 118.008 109.052 118.226 108.191C118.435 107.365 118.264 106.863 117.898 106.505C117.479 106.099 116.712 105.783 115.539 105.601C114.385 105.421 112.926 105.381 111.217 105.448C107.854 105.576 103.631 106.105 99.0688 106.675L98.8572 106.702C94.2282 107.282 89.2689 107.895 84.5816 108.162C79.8968 108.425 75.438 108.346 71.8139 107.514C68.1966 106.681 65.2914 105.073 63.9183 102.182C62.5479 99.3009 62.7822 95.3405 64.9784 90.0261C67.1821 84.6987 71.3979 77.9053 78.1744 69.2688C84.9173 60.6705 89.4739 53.4463 92.2578 47.438C95.0433 41.4219 96.0338 36.6604 95.7042 32.9789C95.3785 29.3256 93.755 26.6987 91.2084 24.9032C88.6426 23.0908 85.1012 22.091 80.928 21.8115C72.5808 21.249 61.9177 23.5661 52.1311 27.5606C42.3377 31.5569 33.5328 37.186 28.8433 43.1648C9.91515 67.2901 14.1277 102.188 38.253 121.116ZM37.8854 121.583C62.2664 140.717 97.5424 136.458 116.671 112.074C123.807 102.98 112.808 104.358 99.0152 106.079C75.8198 108.981 44.7222 112.872 78.6415 69.6363C132.735 0.689345 47.5052 18.4139 28.3728 42.7982C9.2429 67.1783 13.502 102.454 37.8854 121.583Z" fill="#74604B"/>
<path fill-rule="evenodd" clip-rule="evenodd" d="M39.0239 124.074C63.1482 142.998 98.0496 138.785 116.974 114.661C118.156 113.158 118.778 112.009 119 111.147C119.209 110.321 119.037 109.816 118.668 109.459C118.252 109.052 117.486 108.739 116.313 108.557C115.155 108.375 113.697 108.339 111.987 108.402C108.625 108.533 104.405 109.058 99.8397 109.632L99.6306 109.655C94.9982 110.236 90.0398 110.853 85.3516 111.116C80.6711 111.382 76.2123 111.303 72.5873 110.467C68.9675 109.638 66.0648 108.026 64.6883 105.136C63.3188 102.258 63.5565 98.297 65.7527 92.9826C67.953 87.6561 72.1713 80.8583 78.9444 72.2228C85.6916 63.627 90.2482 56.4028 93.0312 50.391C95.8167 44.3749 96.8081 39.6169 96.4785 35.9354C96.1519 32.2786 94.5259 29.6561 91.9818 27.8562C89.416 26.0439 85.8721 25.0484 81.6989 24.7688C73.3517 24.2064 62.6886 26.5234 52.9045 30.5136C43.1111 34.5099 34.3071 40.1424 29.6133 46.1188C10.6886 70.2431 14.902 105.145 39.0239 124.074ZM38.6564 124.541C63.0398 143.67 98.3124 139.411 117.446 115.031C124.578 105.937 113.582 107.311 99.7861 109.037C76.5941 111.938 45.4922 115.826 79.4149 72.5894C133.51 3.64582 48.2752 21.3679 29.1462 45.7513C10.0172 70.1347 14.2729 105.412 38.6564 124.541Z" fill="#74604B"/>
<path fill-rule="evenodd" clip-rule="evenodd" d="M39.797 127.027C63.9223 145.955 98.8203 141.743 117.748 117.617C118.926 116.116 119.552 114.963 119.77 114.102C119.979 113.276 119.808 112.774 119.442 112.416C119.023 112.01 118.256 111.694 117.083 111.511C115.929 111.332 114.47 111.292 112.762 111.359C109.398 111.487 105.175 112.016 100.613 112.585L100.401 112.613C95.7723 113.193 90.8129 113.806 86.1256 114.073C81.4418 114.339 76.9821 114.257 73.358 113.425C69.7416 112.595 66.8355 110.984 65.4589 108.093C64.0919 105.212 64.3263 101.251 66.5225 95.937C68.7262 90.6096 72.942 83.8162 79.7185 75.1797C86.4614 66.5814 91.0179 59.3572 93.8019 53.3489C96.5874 47.3328 97.5778 42.5713 97.2483 38.8898C96.9226 35.2365 95.2991 32.6096 92.7524 30.8141C90.1866 29.0017 86.6462 28.0053 82.4721 27.7224C74.1257 27.1633 63.4618 29.477 53.6752 33.4714C43.8817 37.4678 35.0769 43.0969 30.3873 49.0757C11.4592 73.201 15.6718 108.099 39.797 127.027ZM39.4304 127.498C63.8104 146.628 99.0865 142.368 118.215 117.985C125.351 108.891 114.352 110.269 100.56 111.994C77.3638 114.892 46.2663 118.783 80.1855 75.5472C134.279 6.60024 49.0493 24.3248 29.9169 48.7091C10.7879 73.0926 15.0461 108.365 39.4304 127.498Z" fill="#74604B"/>
<path fill-rule="evenodd" clip-rule="evenodd" d="M40.5673 129.984C64.6917 148.909 99.5931 144.696 118.519 120.575C119.697 119.073 120.322 117.92 120.543 117.058C120.753 116.232 120.582 115.73 120.212 115.373C119.792 114.964 119.03 114.65 117.857 114.468C116.699 114.289 115.24 114.249 113.531 114.313C110.168 114.444 105.949 114.973 101.383 115.543L101.175 115.569C96.5416 116.147 91.5832 116.764 86.895 117.027C82.2146 117.292 77.7558 117.213 74.1317 116.382C70.511 115.549 67.6092 113.94 66.2317 111.047C64.8622 108.169 65.1 104.208 67.2962 98.8935C69.4965 93.567 73.7148 86.7692 80.4878 78.1336C87.2351 69.5378 91.7882 62.3146 94.5713 56.3028C97.3602 50.2858 98.3481 45.5287 98.022 41.8463C97.6963 38.1929 96.0694 35.567 93.5261 33.7705C90.9594 31.9548 87.4155 30.9592 83.2424 30.6797C74.8951 30.1173 64.2321 32.4343 54.4455 36.4288C44.6545 40.4208 35.8506 46.0533 31.1576 52.0331C12.232 76.154 16.4455 111.055 40.5673 129.984ZM40.1998 130.452C64.5832 149.581 99.8568 145.326 118.989 120.941C126.121 111.848 115.125 113.222 101.33 114.948C78.1341 117.849 47.0357 121.737 80.9592 78.5037C135.053 9.55668 49.8196 27.2821 30.6897 51.6622C11.5573 76.0465 15.8164 111.323 40.1998 130.452Z" fill="#74604B"/>
<path fill-rule="evenodd" clip-rule="evenodd" d="M41.3408 132.938C65.4626 151.867 100.364 147.653 119.292 123.528C120.47 122.026 121.096 120.877 121.313 120.012C121.523 119.186 121.352 118.685 120.986 118.326C120.567 117.92 119.801 117.608 118.627 117.422C117.473 117.242 116.013 117.203 114.305 117.27C110.942 117.397 106.719 117.927 102.157 118.496L101.945 118.524C97.316 119.103 92.3567 119.717 87.6694 119.984C82.9855 120.25 78.5258 120.168 74.9017 119.336C71.282 118.507 68.3792 116.894 67.0027 114.004C65.6332 111.127 65.871 107.165 68.0672 101.851C70.2708 96.5237 74.4857 89.7268 81.2622 81.0903C88.0061 72.4955 92.5626 65.2713 95.3456 59.2595C98.1311 53.2434 99.1225 48.4854 98.7929 44.8039C98.4664 41.1471 96.8394 38.5212 94.2962 36.7247C91.7304 34.9124 88.1899 33.9159 84.0158 33.633C75.6661 33.0749 65.0055 35.3876 55.2189 39.3821C45.4255 43.3784 36.6206 49.0075 31.9311 54.9864C13.003 79.1116 17.2165 114.013 41.3408 132.938ZM40.9742 133.408C65.3542 152.538 100.63 148.279 119.759 123.896C126.896 114.805 115.896 116.179 102.104 117.904C78.9085 120.806 47.8101 124.694 81.7293 81.4579C135.823 12.5109 50.593 30.2354 31.4606 54.6198C12.3316 79.0032 16.5898 114.276 40.9742 133.408Z" fill="#74604B"/>
<path fill-rule="evenodd" clip-rule="evenodd" d="M42.1111 135.895C66.2364 154.823 101.138 150.61 120.063 126.485C121.24 124.984 121.866 123.831 122.087 122.969C122.296 122.143 122.122 121.642 121.756 121.284C121.337 120.878 120.573 120.561 119.401 120.379C118.243 120.2 116.784 120.16 115.076 120.227C111.712 120.355 107.493 120.883 102.927 121.453L102.719 121.48C98.0854 122.057 93.127 122.674 88.4388 122.938C83.7584 123.203 79.2996 123.124 75.6755 122.292C72.0548 121.46 69.1496 119.851 67.7764 116.961C66.406 114.08 66.6404 110.119 68.84 104.804C71.0403 99.4776 75.2595 92.6832 82.0326 84.0477C88.7789 75.4485 93.332 68.2252 96.116 62.2168C98.9049 56.1998 99.8919 51.4393 99.5658 47.7569C99.2401 44.1035 97.6132 41.4776 95.0699 39.6811C92.4998 37.8663 88.9593 36.8699 84.7862 36.5903C76.4389 36.0279 65.7759 38.3449 55.9893 42.3394C46.1992 46.3348 37.3944 51.9639 32.7014 57.9437C13.7767 82.068 17.9859 116.967 42.1111 135.895ZM41.7436 136.362C66.128 155.495 101.401 151.236 120.533 126.852C127.665 117.759 116.667 119.137 102.873 120.858C79.6779 123.76 48.5804 127.651 82.503 84.4143C136.597 15.4673 51.3634 33.1928 32.2344 57.5762C13.1011 81.9571 17.3602 117.233 41.7436 136.362Z" fill="#74604B"/>
<path fill-rule="evenodd" clip-rule="evenodd" d="M42.8843 138.849C67.0061 157.778 101.908 153.564 120.836 129.439C122.013 127.937 122.64 126.788 122.857 125.923C123.067 125.1 122.895 124.595 122.529 124.237C122.11 123.831 121.344 123.518 120.171 123.336C119.016 123.153 117.558 123.117 115.849 123.181C112.486 123.312 108.263 123.838 103.701 124.41L103.488 124.434C98.8595 125.014 93.9011 125.631 89.2129 125.895C84.529 126.161 80.0702 126.082 76.4452 125.247C72.8254 124.417 69.9227 122.805 68.5462 119.915C67.1767 117.037 67.4145 113.076 69.6107 107.762C71.8143 102.434 76.0292 95.6375 82.8057 87.0011C89.5496 78.4062 94.1061 71.182 96.8891 65.1702C99.6746 59.1541 100.666 54.3961 100.336 50.7146C100.01 47.0578 98.3838 44.4353 95.8397 42.6354C93.2739 40.8231 89.7334 39.8267 85.5602 39.5471C77.2096 38.9856 66.5465 41.3026 56.7624 45.2928C46.969 49.2891 38.1641 54.9182 33.4746 60.8971C14.5465 85.0223 18.7599 119.924 42.8843 138.849ZM42.5143 139.32C66.8977 158.449 102.174 154.19 121.304 129.81C128.439 120.716 117.44 122.09 103.647 123.815C80.452 126.717 49.3536 130.605 83.2728 87.3686C137.368 18.425 52.1365 36.1462 33.0041 60.5305C13.8751 84.9139 18.1342 120.19 42.5143 139.32Z" fill="#74604B"/>
</g>
</svg>
