<svg width="70" height="165" viewBox="0 0 70 165" fill="none" xmlns="http://www.w3.org/2000/svg">
<g opacity="0.6">
<path fill-rule="evenodd" clip-rule="evenodd" d="M35.261 106.797C59.3828 125.726 94.2843 121.512 113.212 97.387C114.39 95.8854 115.016 94.7325 115.234 93.8712C115.443 93.0451 115.272 92.5435 114.903 92.1863C114.487 91.7794 113.72 91.4631 112.547 91.2811C111.393 91.1012 109.93 91.0626 108.226 91.1289C104.859 91.2573 100.639 91.7858 96.0768 92.3551L95.8652 92.3826C91.2328 92.9633 86.2769 93.5759 81.5862 93.8438C76.9048 94.1055 72.446 94.0266 68.8219 93.1949C65.2012 92.3623 62.2994 90.7531 60.9229 87.863C59.5525 84.9823 59.7903 81.021 61.9865 75.7066C64.1901 70.3792 68.4059 63.5857 75.1824 54.9493C81.9254 46.351 86.4819 39.1268 89.2658 33.1184C92.0514 27.1023 93.0418 22.3409 92.7122 18.6594C92.3866 15.006 90.7597 12.3801 88.2164 10.5837C85.6506 8.77131 82.1092 7.77146 77.9326 7.49285C69.5854 6.93041 58.9223 9.24746 49.1391 13.241C39.3457 17.2373 30.5408 22.8665 25.8513 28.8453C6.92319 52.9706 11.1357 87.8686 35.261 106.797ZM34.8901 107.265C59.2744 126.397 94.5505 122.138 113.679 97.7546C120.815 88.6606 109.816 90.0384 96.0232 91.76C72.8278 94.6615 41.7303 98.5528 75.6495 55.3168C129.743 -13.6302 44.5098 4.09527 25.3808 28.4787C6.25093 52.8587 10.51 88.1348 34.8901 107.265Z" fill="#E8CFB5"/>
<path fill-rule="evenodd" clip-rule="evenodd" d="M36.0303 109.751C60.1556 128.679 95.0536 124.466 113.982 100.341C115.16 98.8393 115.786 97.6898 116.004 96.8285C116.213 96.0024 116.041 95.4974 115.675 95.1393C115.256 94.7333 114.493 94.4195 113.317 94.2384C112.162 94.0551 110.704 94.019 108.995 94.0828C105.632 94.2137 101.409 94.7397 96.847 95.3124L96.6345 95.3365C92.0055 95.9163 87.0471 96.5332 82.3589 96.7968C77.6751 97.0628 73.2163 96.9839 69.5913 96.1488C65.9749 95.3187 63.0688 93.707 61.6956 90.816C60.3261 87.9387 60.5605 83.9783 62.7601 78.663C64.9604 73.3365 69.1752 66.5396 75.9517 57.9032C82.6956 49.3083 87.2521 42.0841 90.0352 36.0723C92.8207 30.0563 93.812 25.2982 93.4859 21.6158C93.1593 17.959 91.5333 15.3365 88.9891 13.5366C86.4199 11.7252 82.8794 10.7288 78.7063 10.4492C70.359 9.8868 59.696 12.2038 49.9084 16.1949C40.1184 20.1903 31.3111 25.8238 26.6206 31.7992C7.69251 55.9245 11.906 90.8259 36.0303 109.751ZM35.6637 110.221C60.0471 129.35 95.3198 125.092 114.45 100.712C121.585 91.6179 110.586 92.9923 96.7934 94.7173C73.598 97.6188 42.4996 101.507 76.4231 58.2732C130.517 -10.6738 45.2826 7.04827 26.1536 31.4317C7.02116 55.816 11.2803 91.0921 35.6637 110.221Z" fill="#E8CFB5"/>
<path fill-rule="evenodd" clip-rule="evenodd" d="M36.8044 112.707C60.9262 131.636 95.8277 127.423 114.756 103.298C115.934 101.796 116.56 100.646 116.777 99.7817C116.986 98.9556 116.815 98.454 116.446 98.0968C116.03 97.6899 115.263 97.3736 114.09 97.1916C112.933 97.0127 111.474 96.9731 109.769 97.0394C106.402 97.1678 102.183 97.6963 97.6202 98.2656L97.4086 98.2931C92.7762 98.8738 87.8203 99.4864 83.1296 99.7543C78.4491 100.019 73.9894 99.9371 70.3653 99.1054C66.7456 98.2762 63.8428 96.6636 62.4663 93.7735C61.0968 90.8962 61.3337 86.9315 63.5299 81.6171C65.7335 76.2897 69.9493 69.4962 76.7258 60.8598C83.4697 52.2649 88.0253 45.0373 90.8092 39.0289C93.5947 33.0128 94.5861 28.2548 94.2556 24.5699C93.93 20.9165 92.303 18.2906 89.7598 16.4942C87.194 14.6818 83.6501 13.6863 79.476 13.4033C71.1297 12.8443 60.4657 15.158 50.6825 19.1515C40.8891 23.1478 32.0842 28.7769 27.3913 34.7567C8.46658 58.8811 12.6791 93.7791 36.8044 112.707ZM36.4344 113.179C60.8178 132.308 96.0939 128.048 115.223 103.665C122.355 94.572 111.36 95.9489 97.5641 97.6748C74.3712 100.572 43.2737 104.463 77.1929 61.2273C131.287 -7.71967 46.0532 10.0058 26.9242 34.3892C7.79524 58.7726 12.05 94.0462 36.4344 113.179Z" fill="#E8CFB5"/>
<path fill-rule="evenodd" clip-rule="evenodd" d="M37.5757 115.665C61.7 134.59 96.5981 130.377 115.527 106.255C116.705 104.754 117.33 103.601 117.548 102.74C117.758 101.913 117.587 101.412 117.221 101.054C116.801 100.644 116.035 100.331 114.862 100.149C113.708 99.9696 112.248 99.93 110.54 99.9972C107.177 100.125 102.954 100.654 98.3915 101.223L98.1799 101.251C93.55 101.827 88.5916 102.444 83.9034 102.708C79.2196 102.974 74.7607 102.895 71.1367 102.063C67.5194 101.23 64.6142 99.6215 63.2401 96.7271C61.8706 93.8497 62.105 89.8894 64.3012 84.5749C66.5049 79.2476 70.7197 72.4507 77.4962 63.8142C84.2401 55.2193 88.7966 47.9952 91.5797 41.9834C94.3652 35.9673 95.3565 31.2093 95.0304 27.5268C94.7047 23.8735 93.0778 21.2476 90.5311 19.452C87.9644 17.6363 84.4239 16.6398 80.2508 16.3603C71.9035 15.7978 61.2405 18.1149 51.4538 22.1094C41.6595 26.1023 32.8555 31.7348 28.166 37.7137C9.237 61.8355 13.4505 96.7369 37.5757 115.665ZM37.2082 116.132C61.5925 135.265 96.8652 131.006 115.994 106.623C123.13 97.5289 112.13 98.9034 98.3379 100.628C75.1425 103.53 44.0441 107.418 77.9642 64.1851C132.058 -4.76183 46.828 12.9627 27.6946 37.3437C8.56565 61.7271 12.8248 97.0031 37.2082 116.132Z" fill="#E8CFB5"/>
<path fill-rule="evenodd" clip-rule="evenodd" d="M38.3449 118.619C62.4702 137.547 97.3716 133.334 116.296 109.21C117.478 107.707 118.104 106.558 118.321 105.693C118.53 104.867 118.359 104.365 117.99 104.008C117.574 103.601 116.808 103.288 115.634 103.103C114.477 102.924 113.019 102.888 111.313 102.951C107.946 103.079 103.727 103.607 99.1651 104.18L98.9526 104.204C94.3202 104.785 89.3608 105.398 84.6735 105.665C79.9931 105.931 75.5334 105.848 71.9093 105.017C68.2895 104.187 65.3868 102.575 64.0102 99.6847C62.6407 96.8073 62.8785 92.8461 65.0747 87.5316C67.2784 82.2042 71.4933 75.4074 78.2664 66.7718C85.0136 58.176 89.5702 50.9519 92.3532 44.9401C95.1387 38.924 96.13 34.1659 95.8005 30.4844C95.4739 26.8277 93.847 24.2018 91.3037 22.4053C88.738 20.593 85.194 19.5974 81.0209 19.3179C72.6736 18.7554 62.0106 21.0725 52.2265 25.0627C42.433 29.059 33.6282 34.6881 28.9352 40.6679C10.0105 64.7922 14.224 99.6936 38.3449 118.619ZM37.9783 119.09C62.3618 138.219 97.6378 133.96 116.767 109.576C123.9 100.487 112.904 101.86 99.108 103.586C75.9161 106.487 44.8142 110.375 78.7368 67.1384C132.831 -1.80854 47.5972 15.9169 28.4682 40.3003C9.33918 64.6838 13.594 99.9573 37.9783 119.09Z" fill="#E8CFB5"/>
<path fill-rule="evenodd" clip-rule="evenodd" d="M39.1187 121.576C63.2439 140.504 98.142 136.291 117.07 112.166C118.248 110.664 118.873 109.511 119.091 108.65C119.301 107.824 119.13 107.322 118.764 106.964C118.345 106.558 117.578 106.242 116.405 106.06C115.251 105.88 113.791 105.841 112.083 105.908C108.72 106.035 104.497 106.565 99.9345 107.134L99.7229 107.162C95.0939 107.741 90.1346 108.355 85.4473 108.622C80.7625 108.885 76.3037 108.806 72.6796 107.974C69.0623 107.14 66.1571 105.532 64.784 102.641C63.4136 99.7604 63.648 95.8 65.8442 90.4856C68.0478 85.1582 72.2636 78.3647 79.0401 69.7283C85.783 61.13 90.3396 53.9058 93.1235 47.8974C95.909 41.8813 96.8995 37.1199 96.5699 33.4384C96.2443 29.785 94.6207 27.1582 92.0741 25.3627C89.5083 23.5503 85.9669 22.5505 81.7937 22.2709C73.4465 21.7085 62.7834 24.0255 52.9968 28.02C43.2034 32.0163 34.3985 37.6454 29.709 43.6243C10.7809 67.7496 14.9934 102.648 39.1187 121.576ZM38.7512 122.043C63.1321 141.176 98.4081 136.917 117.537 112.534C124.673 103.44 113.674 104.817 99.8809 106.539C76.6855 109.441 45.588 113.332 79.5072 70.0958C133.601 1.14882 48.3709 18.8734 29.2385 43.2577C10.1086 67.6377 14.3677 102.914 38.7512 122.043Z" fill="#E8CFB5"/>
<path fill-rule="evenodd" clip-rule="evenodd" d="M39.8896 124.533C64.0139 143.458 98.9154 139.244 117.84 115.12C119.021 113.617 119.644 112.469 119.866 111.607C120.075 110.781 119.903 110.276 119.534 109.918C119.118 109.511 118.352 109.199 117.179 109.017C116.021 108.834 114.562 108.798 112.853 108.862C109.491 108.993 105.27 109.518 100.705 110.091L100.496 110.115C95.8639 110.695 90.9055 111.312 86.2173 111.576C81.5368 111.841 77.078 111.762 73.453 110.927C69.8333 110.098 66.9305 108.485 65.554 105.595C64.1845 102.718 64.4223 98.7565 66.6185 93.4421C68.8187 88.1156 73.037 81.3178 79.8101 72.6822C86.5574 64.0865 91.1139 56.8623 93.8969 50.8505C96.6824 44.8344 97.6738 40.0764 97.3442 36.3949C97.0177 32.7381 95.3917 30.1156 92.8475 28.3157C90.2817 26.5034 86.7378 25.5078 82.5646 25.2283C74.2174 24.6659 63.5543 26.9829 53.7702 30.9731C43.9768 34.9694 35.1728 40.6019 30.479 46.5783C11.5543 70.7026 15.7678 105.604 39.8896 124.533ZM39.5221 125C63.9055 144.129 99.1781 139.871 118.311 115.49C125.444 106.397 114.448 107.77 100.652 109.496C77.4598 112.397 46.358 116.286 80.2806 73.0488C134.375 4.10529 49.1409 21.8273 30.0119 46.2108C10.8829 70.5942 15.1386 105.871 39.5221 125Z" fill="#E8CFB5"/>
<path fill-rule="evenodd" clip-rule="evenodd" d="M40.6627 127.487C64.7879 146.415 99.686 142.202 118.614 118.077C119.792 116.575 120.417 115.422 120.635 114.561C120.845 113.735 120.674 113.233 120.308 112.875C119.889 112.469 119.122 112.153 117.949 111.971C116.795 111.791 115.335 111.752 113.627 111.819C110.264 111.946 106.041 112.476 101.479 113.045L101.267 113.072C96.6379 113.652 91.6786 114.266 86.9913 114.533C82.3074 114.799 77.8477 114.717 74.2236 113.885C70.6073 113.055 67.7011 111.443 66.3246 108.553C64.9576 105.671 65.192 101.711 67.3882 96.3965C69.5918 91.0691 73.8076 84.2756 80.5841 75.6392C87.3271 67.0409 91.8836 59.8167 94.6675 53.8083C97.453 47.7922 98.4435 43.0308 98.1139 39.3493C97.7883 35.6959 96.1647 33.0691 93.6181 31.2735C91.0523 29.4612 87.5118 28.4648 83.3377 28.1818C74.9914 27.6228 64.3274 29.9364 54.5408 33.9309C44.7474 37.9272 35.9425 43.5563 31.253 49.5352C12.3249 73.6605 16.5374 108.558 40.6627 127.487ZM40.2961 127.957C64.6761 147.087 99.9522 142.828 119.081 118.444C126.217 109.35 115.218 110.728 101.426 112.453C78.2295 115.351 47.132 119.243 81.0512 76.0067C135.145 7.05971 49.9149 24.7843 30.7825 49.1686C11.6535 73.552 15.9117 108.825 40.2961 127.957Z" fill="#E8CFB5"/>
<path fill-rule="evenodd" clip-rule="evenodd" d="M41.433 130.444C65.5574 149.369 100.459 145.155 119.384 121.034C120.562 119.533 121.188 118.38 121.409 117.518C121.618 116.691 121.447 116.19 121.078 115.833C120.658 115.423 119.895 115.109 118.723 114.927C117.565 114.748 116.106 114.709 114.397 114.773C111.034 114.904 106.815 115.432 102.249 116.002L102.041 116.029C97.4074 116.606 92.4489 117.223 87.7608 117.487C83.0803 117.752 78.6215 117.673 74.9974 116.841C71.3767 116.009 68.4749 114.399 67.0975 111.506C65.728 108.629 65.9657 104.667 68.1619 99.3529C70.3622 94.0265 74.5805 87.2287 81.3536 78.5931C88.1008 69.9973 92.654 62.7741 95.437 56.7623C98.2259 50.7453 99.2139 45.9882 98.8877 42.3057C98.562 38.6524 96.9351 36.0265 94.3918 34.23C91.8252 32.4142 88.2813 31.4187 84.1081 31.1392C75.7609 30.5767 65.0978 32.8938 55.3112 36.8883C45.5202 40.8803 36.7163 46.5128 32.0234 52.4926C13.0977 76.6135 17.3112 111.515 41.433 130.444ZM41.0655 130.911C65.449 150.04 100.723 145.785 119.855 121.401C126.987 112.308 115.991 113.681 102.195 115.407C78.9999 118.309 47.9014 122.197 81.8249 78.9631C135.919 10.0162 50.6853 27.7416 31.5554 52.1216C12.423 76.506 16.6821 111.782 41.0655 130.911Z" fill="#E8CFB5"/>
<path fill-rule="evenodd" clip-rule="evenodd" d="M42.2065 133.397C66.3283 152.326 101.23 148.113 120.158 123.988C121.336 122.486 121.962 121.336 122.179 120.472C122.388 119.646 122.218 119.144 121.852 118.786C121.433 118.38 120.666 118.067 119.493 117.882C118.339 117.702 116.879 117.662 115.171 117.729C111.808 117.857 107.585 118.386 103.022 118.956L102.811 118.983C98.1817 119.563 93.2224 120.176 88.5351 120.443C83.8513 120.709 79.3915 120.627 75.7675 119.795C72.1477 118.966 69.245 117.354 67.8684 114.464C66.4989 111.586 66.7367 107.625 68.9329 102.311C71.1366 96.9832 75.3514 90.1863 82.1279 81.5498C88.8718 72.9549 93.4283 65.7308 96.2114 59.719C98.9969 53.7029 99.9882 48.9448 99.6587 45.2633C99.3321 41.6066 97.7052 38.9807 95.1619 37.1842C92.5961 35.3719 89.0556 34.3754 84.8816 34.0925C76.5318 33.5343 65.8713 35.8471 56.0846 39.8416C46.2912 43.8379 37.4863 49.467 32.7968 55.4459C13.8687 79.5711 18.0822 114.473 42.2065 133.397ZM41.8399 133.868C66.2199 152.998 101.496 148.739 120.625 124.355C127.762 115.265 116.762 116.639 102.97 118.364C79.7742 121.265 48.6758 125.153 82.595 81.9173C136.689 12.9704 51.4588 30.6949 32.3264 55.0792C13.1974 79.4627 17.4556 114.735 41.8399 133.868Z" fill="#E8CFB5"/>
<path fill-rule="evenodd" clip-rule="evenodd" d="M42.9768 136.355C67.1021 155.283 102.004 151.069 120.928 126.945C122.106 125.443 122.731 124.29 122.953 123.428C123.162 122.602 122.988 122.101 122.622 121.743C122.203 121.337 121.439 121.02 120.266 120.838C119.109 120.659 117.65 120.62 115.941 120.687C112.578 120.814 108.359 121.343 103.793 121.913L103.584 121.94C98.9512 122.517 93.9927 123.134 89.3045 123.397C84.6241 123.662 80.1653 123.584 76.5412 122.752C72.9205 121.919 70.0153 120.311 68.6422 117.42C67.2718 114.539 67.5061 110.579 69.7057 105.264C71.906 99.9371 76.1252 93.1427 82.8983 84.5071C89.6446 75.9079 94.1978 68.6847 96.9817 62.6763C99.7706 56.6593 100.758 51.8988 100.431 48.2163C100.106 44.563 98.4789 41.9371 95.9356 40.1406C93.3656 38.3258 89.8251 37.3293 85.6519 37.0498C77.3046 36.4874 66.6416 38.8044 56.855 42.7989C47.065 46.7943 38.2601 52.4234 33.5672 58.4032C14.6425 82.5275 18.8516 117.426 42.9768 136.355ZM42.6093 136.822C66.9937 155.954 102.266 151.696 121.399 127.312C128.531 118.218 117.532 119.596 103.739 121.318C80.5437 124.219 49.4461 128.111 83.3687 84.8737C137.463 15.9268 52.2291 33.6522 33.1001 58.0357C13.9668 82.4166 18.2259 117.693 42.6093 136.822Z" fill="#E8CFB5"/>
<path fill-rule="evenodd" clip-rule="evenodd" d="M43.75 139.308C67.8718 158.237 102.773 154.024 121.701 129.898C122.879 128.397 123.505 127.247 123.723 126.382C123.933 125.56 123.761 125.055 123.395 124.697C122.976 124.291 122.21 123.978 121.037 123.796C119.882 123.613 118.424 123.576 116.715 123.64C113.352 123.771 109.128 124.297 104.567 124.87L104.354 124.894C99.7252 125.474 94.7668 126.091 90.0786 126.354C85.3947 126.62 80.9359 126.541 77.3109 125.706C73.6912 124.877 70.7884 123.264 69.4119 120.374C68.0424 117.497 68.2802 113.536 70.4764 108.221C72.6801 102.894 76.8949 96.097 83.6714 87.4605C90.4153 78.8657 94.9718 71.6415 97.7548 65.6297C100.54 59.6136 101.532 54.8556 101.202 51.1741C100.876 47.5173 99.2496 44.8948 96.7054 43.0949C94.1396 41.2826 90.5991 40.2861 86.426 40.0066C78.0753 39.4451 67.4122 41.7621 57.6281 45.7523C47.8347 49.7486 39.0298 55.3777 34.3403 61.3566C15.4122 85.4818 19.6257 120.383 43.75 139.308ZM43.38 139.779C67.7634 158.908 103.039 154.649 122.169 130.269C129.305 121.175 118.305 122.55 104.513 124.275C81.3177 127.176 50.2193 131.064 84.1385 87.8281C138.233 18.8845 53.0022 36.6056 33.8698 60.99C14.7409 85.3734 19 120.649 43.38 139.779Z" fill="#E8CFB5"/>
</g>
</svg>
