<svg width="58" height="140" viewBox="0 0 58 140" fill="none" xmlns="http://www.w3.org/2000/svg">
<g opacity="0.6">
<path fill-rule="evenodd" clip-rule="evenodd" d="M-35.6405 106.444C-11.5187 125.373 23.3828 121.16 42.3109 97.0345C43.4887 95.5328 44.114 94.38 44.3321 93.5187C44.5414 92.6926 44.3705 92.1909 44.0011 91.8337C43.5855 91.4269 42.8183 91.1106 41.6455 90.9285C40.4916 90.7487 39.0288 90.71 37.324 90.7763C33.9572 90.9048 29.7378 91.4332 25.1753 92.0025L24.9637 92.03C20.3313 92.6107 15.3754 93.2234 10.6847 93.4913C6.00334 93.753 1.54454 93.6741 -2.07955 92.8424C-5.70024 92.0097 -8.60205 90.4006 -9.97859 87.5105C-11.349 84.6297 -11.1112 80.6685 -8.91503 75.354C-6.71135 70.0267 -2.49557 63.2332 4.28093 54.5967C11.0239 45.9985 15.5804 38.7743 18.3644 32.7659C21.1499 26.7498 22.1403 21.9884 21.8107 18.3069C21.4851 14.6535 19.8582 12.0276 17.3149 10.2311C14.7491 8.41877 11.2077 7.41892 7.03114 7.14031C-1.3161 6.57787 -11.9792 8.89492 -21.7624 12.8885C-31.5558 16.8848 -40.3607 22.5139 -45.0502 28.4928C-63.9783 52.618 -59.7657 87.5161 -35.6405 106.444ZM-36.0114 106.912C-11.6271 126.045 23.649 121.785 42.778 97.402C49.9136 88.308 38.9149 89.6859 25.1217 91.4074C1.92631 94.309 -29.1712 98.2002 4.748 54.9642C58.8418 -13.9827 -26.3917 3.74273 -45.5206 28.1262C-64.6506 52.5062 -60.3915 87.7822 -36.0114 106.912Z" fill="#E8CFB5"/>
<path fill-rule="evenodd" clip-rule="evenodd" d="M-34.8712 109.398C-10.7459 128.326 24.1521 124.114 43.0802 99.9884C44.258 98.4867 44.8843 97.3373 45.1024 96.476C45.3116 95.6499 45.1398 95.1448 44.7738 94.7867C44.3548 94.3808 43.592 94.067 42.4158 93.8858C41.2609 93.7026 39.8024 93.6664 38.0933 93.7302C34.7309 93.8612 30.5071 94.3871 25.9456 94.9598L25.733 94.9839C21.104 95.5637 16.1456 96.1807 11.4574 96.4442C6.77357 96.7103 2.31477 96.6314 -1.31024 95.7963C-4.9266 94.9661 -7.83274 93.3545 -9.20587 90.4635C-10.5754 87.5861 -10.341 83.6258 -8.14139 78.3104C-5.94112 72.984 -1.72625 66.1871 5.05025 57.5506C11.7941 48.9558 16.3507 41.7316 19.1337 35.7198C21.9192 29.7037 22.9105 24.9457 22.5844 21.2632C22.2578 17.6065 20.6318 14.984 18.0876 13.1841C15.5184 11.3727 11.9779 10.3762 7.80478 10.0967C-0.542462 9.53426 -11.2055 11.8513 -20.9931 15.8424C-30.7831 19.8378 -39.5904 25.4712 -44.2809 31.4467C-63.209 55.5719 -58.9955 90.4734 -34.8712 109.398ZM-35.2378 109.869C-10.8544 128.998 24.4183 124.739 43.5482 100.359C50.6838 91.2653 39.6842 92.6398 25.8919 94.3647C2.69655 97.2663 -28.4019 101.154 5.52163 57.9206C59.6155 -11.0263 -25.6189 6.69573 -44.7479 31.0792C-63.8803 55.4635 -59.6212 90.7396 -35.2378 109.869Z" fill="#E8CFB5"/>
<path fill-rule="evenodd" clip-rule="evenodd" d="M-34.0971 112.355C-9.97526 131.284 24.9262 127.07 43.8543 102.945C45.0321 101.443 45.6584 100.294 45.8755 99.4292C46.0848 98.6031 45.9139 98.1014 45.5445 97.7443C45.1289 97.3374 44.3617 97.0211 43.1889 96.839C42.0316 96.6601 40.5722 96.6205 38.8674 96.6868C35.5006 96.8153 31.2812 97.3438 26.7187 97.913L26.5071 97.9405C21.8747 98.5212 16.9188 99.1339 12.2281 99.4018C7.54764 99.6669 3.08793 99.5846 -0.536159 98.7529C-4.15594 97.9236 -7.05866 96.3111 -8.4352 93.421C-9.80469 90.5436 -9.56783 86.579 -7.37163 81.2646C-5.16796 75.9372 -0.95217 69.1437 5.82433 60.5072C12.5682 51.9124 17.1238 44.6848 19.9077 38.6764C22.6933 32.6603 23.6846 27.9023 23.3541 24.2174C23.0285 20.564 21.4016 17.9381 18.8583 16.1416C16.2925 14.3293 12.7486 13.3337 8.57454 13.0508C0.228215 12.4918 -10.4358 14.8054 -20.219 18.799C-30.0124 22.7953 -38.8173 28.4244 -43.5102 34.4042C-62.4349 58.5285 -58.2224 93.4266 -34.0971 112.355ZM-34.4671 112.826C-10.0837 131.955 25.1924 127.696 44.3214 103.313C51.4536 94.2194 40.4583 95.5964 26.6626 97.3223C3.46971 100.219 -27.6278 104.111 6.29139 60.8747C60.3852 -8.07221 -24.8483 9.65324 -43.9773 34.0367C-63.1063 58.4201 -58.8515 93.6937 -34.4671 112.826Z" fill="#E8CFB5"/>
<path fill-rule="evenodd" clip-rule="evenodd" d="M-33.3258 115.313C-9.20145 134.237 25.6966 130.025 44.6256 105.903C45.8034 104.401 46.4288 103.248 46.6469 102.387C46.8561 101.561 46.6852 101.059 46.3192 100.701C45.8993 100.292 45.1331 99.9789 43.9603 99.7969C42.8063 99.6171 41.3469 99.5775 39.6388 99.6447C36.2753 99.7722 32.0525 100.302 27.49 100.871L27.2784 100.898C22.6485 101.475 17.6901 102.092 13.0019 102.355C8.31806 102.621 3.85926 102.542 0.235166 101.711C-3.38211 100.877 -6.28733 99.2689 -7.66138 96.3745C-9.03086 93.4972 -8.7965 89.5368 -6.6003 84.2224C-4.39663 78.895 -0.181752 72.0981 6.59474 63.4617C13.3386 54.8668 17.8951 47.6426 20.6782 41.6308C23.4637 35.6148 24.455 30.8567 24.1289 27.1743C23.8032 23.5209 22.1763 20.895 19.6296 19.0995C17.0629 17.2837 13.5224 16.2873 9.34927 16.0078C1.00204 15.4453 -9.66103 17.7624 -19.4476 21.7568C-29.242 25.7497 -38.0459 31.3823 -42.7355 37.3611C-61.6645 61.483 -57.451 96.3844 -33.3258 115.313ZM-33.6933 115.78C-9.30895 134.912 25.9637 130.654 45.0927 106.27C52.2283 97.1764 41.2287 98.5508 27.4364 100.276C4.24104 103.177 -26.8574 107.065 7.06272 63.8326C61.1566 -5.11437 -24.0735 12.6102 -43.2068 36.9911C-62.3358 61.3746 -58.0767 96.6506 -33.6933 115.78Z" fill="#E8CFB5"/>
<path fill-rule="evenodd" clip-rule="evenodd" d="M-32.5566 118.267C-8.43132 137.195 26.4701 132.981 45.3948 108.857C46.5761 107.354 47.2023 106.205 47.4195 105.34C47.6288 104.514 47.4579 104.013 47.0884 103.655C46.6729 103.249 45.9066 102.936 44.7329 102.75C43.5755 102.571 42.117 102.535 40.4114 102.598C37.0446 102.726 32.8251 103.255 28.2636 103.828L28.0511 103.852C23.4187 104.432 18.4593 105.046 13.7721 105.313C9.09159 105.578 4.63188 105.496 1.00779 104.664C-2.61199 103.835 -5.51471 102.222 -6.89126 99.3321C-8.26074 96.4548 -8.02298 92.4935 -5.82678 87.1791C-3.6231 81.8517 0.591779 75.0548 7.36487 66.4193C14.1121 57.8235 18.6687 50.5993 21.4517 44.5875C24.2372 38.5714 25.2286 33.8134 24.899 30.1319C24.5724 26.4751 22.9455 23.8492 20.4022 22.0527C17.8365 20.2404 14.2926 19.2449 10.1194 18.9653C1.77215 18.4029 -8.89091 20.72 -18.675 24.7101C-28.4685 28.7064 -37.2733 34.3355 -41.9662 40.3153C-60.891 64.4397 -56.6775 99.3411 -32.5566 118.267ZM-32.9232 118.737C-8.53974 137.866 26.7363 133.607 45.8653 109.224C52.9984 100.134 42.0023 101.508 28.2065 103.233C5.01457 106.134 -26.0873 110.023 7.83534 66.7859C61.9292 -2.16108 -23.3043 15.5644 -42.4333 39.9478C-61.5623 64.3312 -57.3075 99.6048 -32.9232 118.737Z" fill="#E8CFB5"/>
<path fill-rule="evenodd" clip-rule="evenodd" d="M-31.7828 121.223C-7.65757 140.151 27.2405 135.939 46.1686 111.813C47.3464 110.312 47.9717 109.159 48.1898 108.298C48.3991 107.472 48.2282 106.97 47.8622 106.612C47.4432 106.206 46.676 105.89 45.5032 105.708C44.3493 105.528 42.8899 105.488 41.1817 105.555C37.8183 105.683 33.5955 106.212 29.033 106.782L28.8214 106.809C24.1924 107.389 19.2331 108.002 14.5458 108.269C9.86103 108.532 5.40223 108.453 1.77814 107.621C-1.83915 106.788 -4.74436 105.18 -6.1175 102.289C-7.4879 99.4078 -7.25353 95.4475 -5.05734 90.133C-2.85366 84.8057 1.36213 78.0122 8.13863 69.3757C14.8816 60.7774 19.4381 53.5533 22.222 47.5449C25.0076 41.5288 25.998 36.7674 25.6684 33.0858C25.3428 29.4325 23.7193 26.8057 21.1726 25.0101C18.6068 23.1978 15.0654 22.1979 10.8922 21.9184C2.545 21.356 -8.11806 23.673 -17.9047 27.6675C-27.6981 31.6638 -36.503 37.2929 -41.1925 43.2718C-60.1206 67.397 -55.9081 102.295 -31.7828 121.223ZM-32.1503 121.69C-7.76938 140.824 27.5067 136.564 46.6357 112.181C53.7713 103.087 42.7726 104.465 28.9794 106.186C5.78401 109.088 -25.3135 112.979 8.60569 69.7432C62.6995 0.796278 -22.5306 18.5208 -41.663 42.9052C-60.7929 67.2852 -56.5338 102.561 -32.1503 121.69Z" fill="#E8CFB5"/>
<path fill-rule="evenodd" clip-rule="evenodd" d="M-31.0119 124.181C-6.88756 143.105 28.0139 138.892 46.9386 114.767C48.1198 113.265 48.7427 112.116 48.9641 111.254C49.1734 110.428 49.0016 109.923 48.6322 109.566C48.2166 109.159 47.4504 108.846 46.2776 108.664C45.1193 108.482 43.6608 108.446 41.9517 108.509C38.5892 108.64 34.3689 109.165 29.8039 109.739L29.5948 109.762C24.9624 110.343 20.004 110.96 15.3158 111.223C10.6353 111.488 6.17654 111.41 2.55154 110.574C-1.06824 109.745 -3.97096 108.133 -5.3475 105.243C-6.71699 102.365 -6.47922 98.4039 -4.28302 93.0895C-2.08275 87.763 2.13554 80.9653 8.90863 72.3297C15.6559 63.7339 20.2124 56.5097 22.9955 50.498C25.781 44.4819 26.7723 39.7238 26.4428 36.0423C26.1162 32.3856 24.4902 29.7631 21.946 27.9632C19.3802 26.1508 15.8363 25.1553 11.6632 24.8758C3.31592 24.3133 -7.34715 26.6304 -17.1313 30.6205C-26.9247 34.6169 -35.7287 40.2494 -40.4225 46.2257C-59.3472 70.3501 -55.1337 105.252 -31.0119 124.181ZM-31.3794 124.648C-6.99598 143.777 28.2767 139.518 47.41 115.137C54.5422 106.044 43.546 107.418 29.7503 109.144C6.55832 112.044 -24.5435 115.933 9.3791 72.6963C63.4739 3.75275 -21.7606 21.4748 -40.8896 45.8582C-60.0186 70.2417 -55.7629 105.519 -31.3794 124.648Z" fill="#E8CFB5"/>
<path fill-rule="evenodd" clip-rule="evenodd" d="M-30.2388 127.134C-6.11356 146.062 28.7845 141.85 47.7126 117.724C48.8904 116.223 49.5157 115.07 49.7338 114.209C49.9431 113.382 49.7722 112.881 49.4062 112.523C48.9872 112.117 48.22 111.8 47.0472 111.618C45.8933 111.439 44.4339 111.399 42.7257 111.466C39.3623 111.594 35.1395 112.123 30.577 112.692L30.3654 112.72C25.7364 113.3 20.7771 113.913 16.0898 114.18C11.4059 114.446 6.94623 114.364 3.32214 113.532C-0.294228 112.702 -3.20036 111.09 -4.5769 108.2C-5.94389 105.319 -5.70953 101.358 -3.51333 96.0439C-1.30965 90.7166 2.90613 83.9231 9.68263 75.2866C16.4256 66.6883 20.9821 59.4642 23.766 53.4558C26.5516 47.4397 27.542 42.6783 27.2124 38.9967C26.8868 35.3434 25.2633 32.7166 22.7166 30.921C20.1508 29.1087 16.6103 28.1122 12.4362 27.8293C4.08992 27.2702 -6.57406 29.5839 -16.3607 33.5784C-26.1541 37.5747 -34.959 43.2038 -39.6485 49.1827C-58.5766 73.3079 -54.364 108.206 -30.2388 127.134ZM-30.6054 127.605C-6.22538 146.734 29.0507 142.475 48.1797 118.092C55.3153 108.998 44.3166 110.376 30.5243 112.101C7.32801 114.999 -23.7695 118.89 10.1497 75.6541C64.2436 6.70718 -20.9866 24.4317 -40.119 48.8161C-59.248 73.1995 -54.9898 108.472 -30.6054 127.605Z" fill="#E8CFB5"/>
<path fill-rule="evenodd" clip-rule="evenodd" d="M-29.4684 130.091C-5.34411 149.016 29.5573 144.803 48.483 120.682C49.6608 119.18 50.2861 118.027 50.5076 117.165C50.7169 116.339 50.546 115.837 50.1766 115.48C49.7567 115.071 48.9938 114.757 47.821 114.575C46.6637 114.396 45.2042 114.356 43.4952 114.42C40.1327 114.551 35.9133 115.08 31.3474 115.65L31.1392 115.676C26.5059 116.254 21.5474 116.871 16.8593 117.134C12.1788 117.399 7.72 117.32 4.09591 116.489C0.475226 115.656 -2.42659 114.047 -3.80404 111.153C-5.17352 108.276 -4.93576 104.315 -2.73956 99.0004C-0.539288 93.6739 3.67899 86.8761 10.4521 78.2406C17.1993 69.6448 21.7525 62.4215 24.5355 56.4097C27.3244 50.3927 28.3124 45.6356 27.9862 41.9532C27.6605 38.2998 26.0336 35.6739 23.4904 33.8774C20.9237 32.0617 17.3798 31.0662 13.2066 30.7866C4.85937 30.2242 -5.80369 32.5412 -15.5903 36.5357C-25.3812 40.5277 -34.1852 46.1602 -38.8781 52.14C-57.8037 76.2609 -53.5903 111.162 -29.4684 130.091ZM-29.836 130.558C-5.45252 149.687 29.821 145.433 48.9534 121.048C56.0857 111.955 45.0895 113.329 31.2938 115.055C8.09838 117.956 -23.0001 121.844 10.9235 78.6106C65.0173 9.66361 -20.2162 27.3891 -39.3461 51.7691C-58.4785 76.1534 -54.2194 111.429 -29.836 130.558Z" fill="#E8CFB5"/>
<path fill-rule="evenodd" clip-rule="evenodd" d="M-28.695 133.045C-4.57314 151.974 30.3283 147.76 49.2564 123.635C50.4342 122.133 51.0605 120.984 51.2777 120.119C51.4869 119.293 51.316 118.791 50.95 118.433C50.5311 118.027 49.7648 117.715 48.5911 117.529C47.4371 117.349 45.9777 117.31 44.2696 117.377C40.9061 117.504 36.6833 118.034 32.1208 118.603L31.9092 118.631C27.2802 119.21 22.3209 119.824 17.6336 120.091C12.9498 120.357 8.49006 120.275 4.86596 119.443C1.24619 118.614 -1.65653 117.001 -3.03308 114.111C-4.40256 111.234 -4.16479 107.272 -1.96859 101.958C0.235081 96.6306 4.44996 89.8337 11.2265 81.1973C17.9703 72.6024 22.5269 65.3782 25.3099 59.3664C28.0954 53.3503 29.0867 48.5923 28.7572 44.9108C28.4306 41.254 26.8037 38.6281 24.2604 36.8316C21.6946 35.0193 18.1541 34.0229 13.9801 33.7399C5.63034 33.1818 -5.03024 35.4945 -14.8169 39.489C-24.6103 43.4853 -33.4151 49.1145 -38.1047 55.0933C-57.0328 79.2186 -52.8193 114.12 -28.695 133.045ZM-29.0616 133.515C-4.68156 152.645 30.5945 148.386 49.7235 124.003C56.86 114.912 45.8605 116.286 32.0681 118.011C8.87275 120.913 -22.2257 124.801 11.6935 81.5648C65.7874 12.6178 -19.4427 30.3424 -38.5751 54.7267C-57.7041 79.1101 -53.4459 114.383 -29.0616 133.515Z" fill="#E8CFB5"/>
<path fill-rule="evenodd" clip-rule="evenodd" d="M-27.9246 136.002C-3.7994 154.93 31.102 150.717 50.0268 126.592C51.2046 125.091 51.8299 123.938 52.0514 123.076C52.2607 122.25 52.0864 121.749 51.7204 121.391C51.3014 120.985 50.5376 120.668 49.3648 120.485C48.2074 120.307 46.748 120.267 45.0399 120.334C41.6765 120.462 37.4571 120.99 32.8912 121.56L32.683 121.587C28.0497 122.164 23.0912 122.781 18.4031 123.045C13.7226 123.31 9.2638 123.231 5.63971 122.399C2.01902 121.567 -0.886195 119.958 -2.25933 117.067C-3.62973 114.187 -3.39537 110.226 -1.19576 104.911C1.00451 99.5845 5.2237 92.7902 11.9968 84.1546C18.7431 75.5554 23.2963 68.3321 26.0802 62.3238C28.8691 56.3068 29.8562 51.5462 29.53 47.8638C29.2043 44.2104 27.5774 41.5845 25.0341 39.7881C22.4641 37.9732 18.9236 36.9768 14.7504 36.6973C6.40316 36.1348 -4.2599 38.4519 -14.0465 42.4464C-23.8365 46.4418 -32.6414 52.0709 -37.3343 58.0506C-56.259 82.175 -52.0499 117.074 -27.9246 136.002ZM-28.2922 136.469C-3.90782 155.602 31.3648 151.343 50.4972 126.959C57.6294 117.866 46.6308 119.244 32.8376 120.965C9.64217 123.867 -21.4554 127.758 12.4673 84.5212C66.5611 15.5742 -18.6724 33.2997 -37.8014 57.6831C-56.9347 82.0641 -52.6756 117.34 -28.2922 136.469Z" fill="#E8CFB5"/>
<path fill-rule="evenodd" clip-rule="evenodd" d="M-27.1515 138.955C-3.02965 157.884 31.8718 153.671 50.7999 129.546C51.9777 128.044 52.604 126.895 52.8211 126.03C53.0313 125.207 52.8595 124.702 52.4935 124.344C52.0745 123.938 51.3083 123.625 50.1355 123.443C48.9806 123.26 47.5221 123.224 45.813 123.288C42.4505 123.419 38.2268 123.945 33.6652 124.517L33.4527 124.541C28.8237 125.121 23.8653 125.738 19.1771 126.002C14.4933 126.268 10.0345 126.189 6.40945 125.354C2.78968 124.524 -0.113046 122.912 -1.48959 120.022C-2.85907 117.144 -2.6213 113.183 -0.425109 107.869C1.77857 102.541 5.99344 95.7445 12.7699 87.108C19.5138 78.5131 24.0703 71.2889 26.8534 65.2772C29.6389 59.2611 30.6302 54.503 30.3007 50.8215C29.9741 47.1648 28.3481 44.5423 25.8039 42.7424C23.2381 40.93 19.6976 39.9336 15.5245 39.6541C7.17382 39.0925 -3.48924 41.4096 -13.2734 45.3997C-23.0668 49.3961 -31.8717 55.0252 -36.5612 61.004C-55.4893 85.1293 -51.2758 120.031 -27.1515 138.955ZM-27.5215 139.427C-3.13807 158.556 32.138 154.297 51.2679 129.917C58.4035 120.823 47.4039 122.197 33.6116 123.922C10.4162 126.824 -20.6822 130.711 13.237 87.4755C67.3318 18.532 -17.8992 36.2531 -37.0316 60.6374C-56.1606 85.0209 -51.9015 120.297 -27.5215 139.427Z" fill="#E8CFB5"/>
</g>
</svg>
