<svg width="243" height="76" viewBox="0 0 243 76" fill="none" xmlns="http://www.w3.org/2000/svg">
<path d="M89.6396 40.7989C90.8172 40.4197 91.0301 39.3652 91.0301 36.7971V23.1986C91.0301 18.9041 90.2717 17.6833 88.6284 17.0945V16.5889H93.8909L102.606 31.029L110.902 16.5889H115.912V17.0945C114.312 17.64 113.51 18.9041 113.51 23.1986V36.7971C113.51 39.3252 113.763 40.3764 114.901 40.7989V41.3045H108.374V40.7989C109.552 40.4197 109.765 39.3652 109.765 36.7971V19.7457L101.302 34.5651H100.501L91.6588 20.0417V34.6516C91.6588 38.946 92.5037 40.1668 94.3532 40.7556V41.2612H89.6396V40.7989Z" fill="white"/>
<path d="M134.098 39.9141V34.1028C133.13 38.1877 130.562 41.6805 126.9 41.6805C124.288 41.6805 122.099 40.0405 122.099 37.05C122.099 33.4308 125.805 31.9971 130.183 30.7763L134.098 29.642C134.015 26.1459 132.119 24.7987 129.511 24.7987C127.532 24.7987 125.596 25.6403 123.783 27.7892L123.447 27.4499C125.426 25.0082 128.12 23.4082 131.32 23.4082C135.572 23.4082 137.594 25.6835 137.594 29.978V36.7573C137.594 39.2821 137.847 40.3332 138.985 40.7557V41.2613H135.445C134.604 41.3046 134.098 40.799 134.098 39.9141ZM128.709 39.0725C132.162 39.0725 134.098 34.2292 134.141 31.0291V30.1044L130.352 31.1988C128.709 31.6612 125.426 32.8421 125.426 35.786C125.426 38.1444 127.069 39.0725 128.709 39.0725Z" fill="white"/>
<path d="M144.247 40.7988C145.425 40.4196 145.634 39.3651 145.634 36.7971V28.7138C145.634 26.6514 145.089 26.2722 144.247 25.8929V25.4306L148.878 23.3682L149.214 23.6609V26.6081C151.15 25.0081 153.678 23.4513 156.455 23.4513C159.699 23.4513 161.887 25.1345 161.887 29.2627V36.8403C161.887 39.3651 162.14 40.4196 163.274 40.8387V41.3444H156.878V40.8387C158.055 40.4595 158.265 39.4084 158.265 36.8403V29.8947C158.265 26.7345 156.878 24.8418 154.266 24.8418C152.623 24.8418 151.11 25.6401 149.214 27.2002V36.7971C149.214 39.3252 149.466 40.3764 150.604 40.7988V41.3045H144.204V40.7988H144.247Z" fill="white"/>
<path d="M167.107 24.1668V23.6611H173.127V24.1668C171.95 24.546 172.455 25.4741 173.463 27.7893L177.675 37.6822L181.464 27.8724C182.348 25.4741 182.096 24.4628 180.918 24.1668V23.6611H184.707V24.1668C183.696 24.5027 182.98 25.4741 182.052 27.8724L176.916 41.3047H175.276L169.635 27.8292C168.623 25.4741 167.908 24.546 167.107 24.1668Z" fill="white"/>
<path d="M188.875 40.7992C190.053 40.42 190.262 39.3655 190.262 36.7975V28.7142C190.262 26.6518 189.717 26.2726 188.875 25.8933V25.431L193.505 23.3686L193.841 23.6613V36.8407C193.841 39.3655 194.094 40.42 195.232 40.8391V41.3448H188.832V40.7992H188.875ZM191.905 17.3477C193.296 17.3477 194.304 18.3988 194.304 19.7893C194.304 21.1365 193.253 22.1877 191.905 22.1877C190.558 22.1877 189.507 21.1365 189.507 19.7893C189.507 18.3988 190.558 17.3477 191.905 17.3477Z" fill="white"/>
<path d="M200.957 40.7989C202.138 40.4197 202.347 39.3652 202.347 36.7972V18.1457C202.347 16.0833 201.798 15.7041 200.957 15.3249V14.8192L205.587 12.7568L205.926 13.0529V36.7972C205.926 39.3253 206.179 40.3765 207.314 40.7989V41.3045H200.917V40.7989H200.957Z" fill="white"/>
<path d="M213.125 40.7989C214.302 40.4197 214.515 39.3652 214.515 36.7972V18.1457C214.515 16.0833 213.966 15.7041 213.125 15.3249V14.8192L217.755 12.7568L218.091 13.0529V36.7972C218.091 39.3253 218.344 40.3765 219.482 40.7989V41.3045H213.081V40.7989H213.125Z" fill="white"/>
<path d="M225.333 33.1787C225.333 27.2011 230.007 23.4521 234.597 23.4521C239.354 23.4521 241.879 26.7354 241.879 29.809H228.533C228.493 30.1882 228.45 30.5675 228.45 30.9467C228.45 35.5771 231.271 38.8204 235.735 38.8204C238.343 38.8204 240.365 37.6828 241.839 36.0395L242.175 36.3788C240.575 38.8603 237.754 41.6413 233.669 41.6413C229.797 41.6413 225.333 38.8603 225.333 33.1787ZM238.343 29.3034C237.88 26.3994 235.944 24.1274 233.503 24.0842C230.512 24.0409 228.999 26.569 228.576 29.3034H238.343Z" fill="white"/>
<path d="M128.543 63.619C129.175 63.4061 129.298 62.774 129.298 61.3437V53.5564C129.298 51.0716 128.879 50.3963 127.994 50.0603V49.7676H130.898L135.698 58.0605L140.245 49.7676H143.026V50.0603C142.141 50.3963 141.719 51.0716 141.719 53.5564V61.3437C141.719 62.8173 141.845 63.4061 142.477 63.619V63.9117H138.858V63.619C139.487 63.4061 139.613 62.774 139.613 61.3437V51.5772L134.94 60.0796H134.477L129.594 51.7435V60.1229C129.594 62.6077 130.056 63.2797 131.068 63.619V63.9117H128.456V63.619H128.543Z" fill="#E8CFB5"/>
<path d="M145.508 63.6187C146.1 63.4058 146.602 62.8603 147.151 61.513L150.77 52.1224C150.94 51.7033 150.896 51.4073 150.73 51.028L150.477 50.4825L152.37 49.5977L157.17 61.513C157.719 62.8603 158.225 63.3659 158.687 63.5755V63.8715H155.151V63.5755C155.783 63.3659 155.53 62.817 154.981 61.513L153.804 58.6057H148.624L147.487 61.513C146.981 62.8603 147.068 63.449 147.74 63.6187V63.9114H145.468V63.6187H145.508ZM153.677 58.313L151.149 52.0825L148.708 58.313H153.677Z" fill="#E8CFB5"/>
<path d="M162.393 52.122V60.1222C162.393 62.607 162.855 63.279 163.866 63.6183V63.911H161.255V63.6183C161.887 63.4054 162.014 62.7733 162.014 61.343V52.3349C162.014 50.8613 161.844 50.2692 161.002 50.0596V49.7669H163.191L171.361 60.375V53.5125C171.361 51.0276 170.895 50.3557 169.887 50.0164V49.7236H172.495V50.0164C171.863 50.2293 171.737 50.8613 171.737 52.2917V64.0374H171.527L162.393 52.122Z" fill="#E8CFB5"/>
<path d="M176.201 56.7958C176.201 52.7974 179.022 49.6406 183.147 49.6406C186.433 49.6406 190.096 51.9958 190.096 56.9223C190.096 61.8487 186.433 64.1207 183.147 64.1207C179.864 64.1207 176.201 61.8487 176.201 56.7958ZM184.284 63.492C187.275 63.492 188.326 61.1735 188.16 58.5223C187.864 54.2278 185.548 50.1429 182.179 50.1429C179.528 50.1429 178.054 52.2918 178.264 55.575C178.516 59.6167 180.958 63.492 184.284 63.492Z" fill="#E8CFB5"/>
<path d="M200.916 60.6285C199.735 57.6812 199.652 56.67 197.926 56.67H196.788V61.3437C196.788 62.8173 196.915 63.4061 197.547 63.619V63.9117H193.927V63.619C194.556 63.4061 194.683 62.774 194.683 61.3437V52.3356C194.683 50.862 194.556 50.2699 193.927 50.0603V49.7676H198.009C202.264 49.7676 203.105 51.3643 203.105 53.0076C203.105 54.8604 201.884 56.2509 199.316 56.5868C201.505 56.8396 201.924 57.8076 202.979 60.5021C203.987 63.1965 204.24 63.6589 204.958 63.6589C205.041 63.6589 205.168 63.6589 205.251 63.6589V63.9549C204.788 64.0813 204.2 64.0813 203.864 64.0813C202.22 64.0813 201.841 62.9869 200.916 60.6285ZM198.052 56.334C200.284 56.334 201.083 55.03 201.083 53.4699C201.083 51.83 200.071 50.0603 197.63 50.0603C197.377 50.0603 197.084 50.0603 196.788 50.1036V56.2908H198.052V56.334Z" fill="#E8CFB5"/>
<path d="M242.258 56.8791L210.513 57.6376V56.124L242.258 56.8791Z" fill="#E8CFB5"/>
<path d="M90.9438 56.8791L122.688 56.124V57.6376L90.9438 56.8791Z" fill="#E8CFB5"/>
<path d="M26.9925 47.7876L35.9174 30.8625V42.2723L39.5798 34.9441V23.2815C39.5798 21.2191 36.8022 20.5871 35.8741 22.4L24.298 46.3971C23.8756 47.282 24.3812 48.3331 25.3059 48.5427C25.9812 48.6691 26.6532 48.3764 26.9925 47.7876Z" fill="white"/>
<path d="M48.3384 41.6408V27.7462C48.3384 26.1462 46.1895 25.6405 45.4743 27.0743L36.3365 45.1336C35.9174 45.9752 36.3365 47.0297 37.2213 47.3657C37.9798 47.6185 38.8214 47.2825 39.1573 46.5673L44.8855 35.3239V41.6408C44.8855 42.6088 45.6439 43.3673 46.6119 43.3673C47.5799 43.3673 48.3384 42.6088 48.3384 41.6408Z" fill="#E8CFB5"/>
<path d="M37.7269 0L33.2661 4.96974L34.9493 6.65293L37.7269 3.32646L40.8438 6.65293L42.6534 4.92649L37.7269 0Z" fill="#E8CFB5"/>
<path d="M37.9564 6.25684L39.8925 8.19284L37.9564 10.1255L36.0238 8.19284L37.9564 6.25684Z" fill="#E8CFB5"/>
<path d="M38.1892 75.4908L42.6534 70.5211L40.9702 68.8379L38.1892 72.1644L35.0757 68.8379L33.2661 70.5643L38.1892 75.4908Z" fill="#E8CFB5"/>
<path d="M37.9566 69.2304L36.0206 67.2944L37.9566 65.3584L39.8893 67.2944L37.9566 69.2304Z" fill="#E8CFB5"/>
<path d="M31.7062 68.9641L0.467346 37.7253L31.7062 6.52637L33.2663 8.08315L3.62416 37.7253L33.2663 67.4073L31.7062 68.9641Z" fill="#E8CFB5"/>
<path d="M31.7062 68.9641L0.467346 37.7253L31.7062 6.52637L33.2663 8.08315L3.62416 37.7253L33.2663 67.4073L31.7062 68.9641Z" fill="#E8CFB5"/>
<path d="M9.72829 37.726L36.0439 11.4103L34.4872 9.85352L6.57147 37.726L34.6535 65.8479L36.2535 64.2478L9.72829 37.726Z" fill="#E8CFB5"/>
<path d="M44.1703 6.52637L75.3659 37.7253L44.1703 68.9641L42.5703 67.4073L72.209 37.7253L42.5703 8.08315L44.1703 6.52637Z" fill="#E8CFB5"/>
<path d="M66.1051 37.7256L39.7894 64.0811L41.3495 65.6379L69.2619 37.7256L41.1799 9.64355L39.5798 11.2436L66.1051 37.7256Z" fill="#E8CFB5"/>
</svg>
