<svg width="27" height="16" viewBox="0 0 27 16" fill="none" xmlns="http://www.w3.org/2000/svg">
<path d="M1.91584 6.92432C1.36356 6.92432 0.91584 7.37203 0.91584 7.92432C0.91584 8.4766 1.36356 8.92432 1.91584 8.92432V6.92432ZM26.7022 8.63142C27.0928 8.2409 27.0928 7.60773 26.7022 7.21721L20.3383 0.853249C19.9477 0.462724 19.3146 0.462724 18.9241 0.853249C18.5335 1.24377 18.5335 1.87694 18.9241 2.26746L24.5809 7.92432L18.9241 13.5812C18.5335 13.9717 18.5335 14.6049 18.9241 14.9954C19.3146 15.3859 19.9477 15.3859 20.3383 14.9954L26.7022 8.63142ZM1.91584 8.92432L25.9951 8.92432V6.92432L1.91584 6.92432V8.92432Z" fill="#EBEEF3"/>
</svg>
