<svg width="25" height="24" viewBox="0 0 25 24" fill="none" xmlns="http://www.w3.org/2000/svg">
<path d="M11.9127 14.95L10.0627 16.8C9.67267 17.19 9.05267 17.19 8.65267 16.81C8.54267 16.7 8.43267 16.6 8.32267 16.49C7.29267 15.45 6.36267 14.36 5.53267 13.22C4.71267 12.08 4.05267 10.94 3.57267 9.81C3.10267 8.67 2.86267 7.58 2.86267 6.54C2.86267 5.86 2.98267 5.21 3.22267 4.61C3.46267 4 3.84267 3.44 4.37267 2.94C5.01267 2.31 5.71267 2 6.45267 2C6.73267 2 7.01267 2.06 7.26267 2.18C7.52267 2.3 7.75267 2.48 7.93267 2.74L10.2527 6.01C10.4327 6.26 10.5627 6.49 10.6527 6.71C10.7427 6.92 10.7927 7.13 10.7927 7.32C10.7927 7.56 10.7227 7.8 10.5827 8.03C10.4527 8.26 10.2627 8.5 10.0227 8.74L9.26267 9.53C9.15267 9.64 9.10267 9.77 9.10267 9.93C9.10267 10.01 9.11267 10.08 9.13267 10.16C9.16267 10.24 9.19267 10.3 9.21267 10.36C9.39267 10.69 9.70267 11.12 10.1427 11.64C10.5927 12.16 11.0727 12.69 11.5927 13.22C11.6927 13.32 11.8027 13.42 11.9027 13.52C12.3027 13.91 12.3127 14.55 11.9127 14.95Z" fill="white"/>
<path d="M22.8327 18.33C22.8327 18.61 22.7827 18.9 22.6827 19.18C22.6527 19.26 22.6227 19.34 22.5827 19.42C22.4127 19.78 22.1927 20.12 21.9027 20.44C21.4127 20.98 20.8727 21.37 20.2627 21.62C20.2527 21.62 20.2427 21.63 20.2327 21.63C19.6427 21.87 19.0027 22 18.3127 22C17.2927 22 16.2027 21.76 15.0527 21.27C13.9027 20.78 12.7527 20.12 11.6127 19.29C11.2227 19 10.8327 18.71 10.4627 18.4L13.7327 15.13C14.0127 15.34 14.2627 15.5 14.4727 15.61C14.5227 15.63 14.5827 15.66 14.6527 15.69C14.7327 15.72 14.8127 15.73 14.9027 15.73C15.0727 15.73 15.2027 15.67 15.3127 15.56L16.0727 14.81C16.3227 14.56 16.5627 14.37 16.7927 14.25C17.0227 14.11 17.2527 14.04 17.5027 14.04C17.6927 14.04 17.8927 14.08 18.1127 14.17C18.3327 14.26 18.5627 14.39 18.8127 14.56L22.1227 16.91C22.3827 17.09 22.5627 17.3 22.6727 17.55C22.7727 17.8 22.8327 18.05 22.8327 18.33Z" fill="white"/>
</svg>
