<svg width="25" height="25" viewBox="0 0 25 25" fill="none" xmlns="http://www.w3.org/2000/svg">
<g clip-path="url(#clip0_320_3898)">
<path d="M0.575 5.60008C0.726227 4.93744 1.09798 4.3458 1.62938 3.92204C2.16078 3.49828 2.82033 3.26753 3.5 3.26758H21.5C22.1797 3.26753 22.8392 3.49828 23.3706 3.92204C23.902 4.3458 24.2738 4.93744 24.425 5.60008L12.5 12.8886L0.575 5.60008ZM0.5 7.31308V17.9691L9.2045 12.6321L0.5 7.31308ZM10.6415 13.5126L0.7865 19.5531C1.02999 20.0665 1.41429 20.5002 1.89467 20.8037C2.37505 21.1073 2.93176 21.2681 3.5 21.2676H21.5C22.0681 21.2677 22.6246 21.1065 23.1048 20.8027C23.5849 20.4989 23.9688 20.0651 24.212 19.5516L14.357 13.5111L12.5 14.6466L10.6415 13.5111V13.5126ZM15.7955 12.6336L24.5 17.9691V7.31308L15.7955 12.6321V12.6336Z" fill="#74604B"/>
</g>
<defs>
<clipPath id="clip0_320_3898">
<rect width="24" height="24" fill="white" transform="translate(0.5 0.267578)"/>
</clipPath>
</defs>
</svg>
