<svg width="25" height="18" viewBox="0 0 25 18" fill="none" xmlns="http://www.w3.org/2000/svg">
<path d="M23.2493 7.17404H0.963588C0.73626 7.17404 0.518242 7.26434 0.357497 7.42509C0.196751 7.58583 0.106445 7.80385 0.106445 8.03118L0.106445 9.74547C0.106445 9.97279 0.196751 10.1908 0.357497 10.3516C0.518242 10.5123 0.73626 10.6026 0.963588 10.6026H23.2493C23.4766 10.6026 23.6946 10.5123 23.8554 10.3516C24.0161 10.1908 24.1064 9.97279 24.1064 9.74547V8.03118C24.1064 7.80385 24.0161 7.58583 23.8554 7.42509C23.6946 7.26434 23.4766 7.17404 23.2493 7.17404ZM5.89752 3.74547H18.3159C18.401 3.74547 18.4853 3.7287 18.5639 3.69611C18.6425 3.66353 18.7139 3.61578 18.7741 3.55558C18.8342 3.49538 18.8819 3.42391 18.9144 3.34527C18.947 3.26663 18.9637 3.18235 18.9636 3.09725V0.964573C18.9636 0.879519 18.9468 0.795297 18.9143 0.716717C18.8817 0.638137 18.834 0.566738 18.7739 0.506595C18.7137 0.446453 18.6423 0.398745 18.5638 0.366196C18.4852 0.333647 18.401 0.316895 18.3159 0.316895H5.89752C5.81242 0.316824 5.72814 0.333525 5.6495 0.366042C5.57085 0.39856 5.49939 0.446256 5.43919 0.506406C5.37899 0.566555 5.33124 0.637979 5.29866 0.716594C5.26607 0.795209 5.2493 0.879474 5.2493 0.964573V3.09725C5.2493 3.26917 5.3176 3.43404 5.43916 3.55561C5.56072 3.67717 5.7256 3.74547 5.89752 3.74547ZM18.3159 17.4598C18.401 17.4598 18.4853 17.443 18.5639 17.4104C18.6425 17.3778 18.7139 17.3301 18.7741 17.2699C18.8342 17.2097 18.8819 17.1382 18.9144 17.0596C18.947 16.9809 18.9637 16.8966 18.9636 16.8115V14.6789C18.9636 14.5071 18.8953 14.3423 18.7739 14.2209C18.6524 14.0994 18.4877 14.0312 18.3159 14.0312H5.89752C5.81242 14.0311 5.72814 14.0478 5.6495 14.0803C5.57085 14.1128 5.49939 14.1605 5.43919 14.2207C5.37899 14.2808 5.33124 14.3523 5.29866 14.4309C5.26607 14.5095 5.2493 14.5938 5.2493 14.6789V16.8115C5.2493 16.8967 5.26607 16.981 5.29864 17.0596C5.33122 17.1382 5.37897 17.2097 5.43916 17.2699C5.49935 17.3301 5.57081 17.3778 5.64946 17.4104C5.7281 17.443 5.81239 17.4598 5.89752 17.4598H18.3159Z" fill="white"/>
</svg>
