<svg width="23" height="23" viewBox="0 0 23 23" fill="none" xmlns="http://www.w3.org/2000/svg">
<path fill-rule="evenodd" clip-rule="evenodd" d="M6.82767 0.557211C8.00067 0.503211 8.37467 0.491211 11.3627 0.491211C14.3507 0.491211 14.7247 0.504211 15.8967 0.557211C17.0687 0.610211 17.8687 0.797211 18.5687 1.06821C19.3017 1.34521 19.9667 1.77821 20.5167 2.33821C21.0767 2.88721 21.5087 3.55121 21.7847 4.28521C22.0567 4.98521 22.2427 5.78521 22.2967 6.95521C22.3507 8.13021 22.3627 8.50421 22.3627 11.4912C22.3627 14.4792 22.3497 14.8532 22.2967 16.0262C22.2437 17.1962 22.0567 17.9962 21.7847 18.6962C21.5087 19.4303 21.076 20.0954 20.5167 20.6452C19.9667 21.2052 19.3017 21.6372 18.5687 21.9132C17.8687 22.1852 17.0687 22.3712 15.8987 22.4252C14.7247 22.4792 14.3507 22.4912 11.3627 22.4912C8.37467 22.4912 8.00067 22.4782 6.82767 22.4252C5.65767 22.3722 4.85767 22.1852 4.15767 21.9132C3.42359 21.6372 2.75849 21.2045 2.20867 20.6452C1.64905 20.0959 1.21599 19.4311 0.939671 18.6972C0.668671 17.9972 0.482671 17.1972 0.428671 16.0272C0.374671 14.8522 0.362671 14.4782 0.362671 11.4912C0.362671 8.50321 0.375671 8.12921 0.428671 6.95721C0.481671 5.78521 0.668671 4.98521 0.939671 4.28521C1.21639 3.55129 1.64979 2.88652 2.20967 2.33721C2.75871 1.77771 3.42314 1.34465 4.15667 1.06821C4.85667 0.797211 5.65667 0.611211 6.82667 0.557211H6.82767ZM15.8077 2.53721C14.6477 2.48421 14.2997 2.47321 11.3627 2.47321C8.42567 2.47321 8.07767 2.48421 6.91767 2.53721C5.84467 2.58621 5.26267 2.76521 4.87467 2.91621C4.36167 3.11621 3.99467 3.35321 3.60967 3.73821C3.24472 4.09326 2.96385 4.52549 2.78767 5.00321C2.63667 5.39121 2.45767 5.97321 2.40867 7.04621C2.35567 8.20621 2.34467 8.55421 2.34467 11.4912C2.34467 14.4282 2.35567 14.7762 2.40867 15.9362C2.45767 17.0092 2.63667 17.5912 2.78767 17.9792C2.96367 18.4562 3.24467 18.8892 3.60967 19.2442C3.96467 19.6092 4.39767 19.8902 4.87467 20.0662C5.26267 20.2172 5.84467 20.3962 6.91767 20.4452C8.07767 20.4982 8.42467 20.5092 11.3627 20.5092C14.3007 20.5092 14.6477 20.4982 15.8077 20.4452C16.8807 20.3962 17.4627 20.2172 17.8507 20.0662C18.3637 19.8662 18.7307 19.6292 19.1157 19.2442C19.4807 18.8892 19.7617 18.4562 19.9377 17.9792C20.0887 17.5912 20.2677 17.0092 20.3167 15.9362C20.3697 14.7762 20.3807 14.4282 20.3807 11.4912C20.3807 8.55421 20.3697 8.20621 20.3167 7.04621C20.2677 5.97321 20.0887 5.39121 19.9377 5.00321C19.7377 4.49021 19.5007 4.12321 19.1157 3.73821C18.7606 3.37328 18.3284 3.09242 17.8507 2.91621C17.4627 2.76521 16.8807 2.58621 15.8077 2.53721ZM9.95767 14.8822C10.7423 15.2088 11.616 15.2529 12.4296 15.0069C13.2431 14.7609 13.9461 14.2401 14.4183 13.5335C14.8905 12.8268 15.1027 11.9781 15.0187 11.1323C14.9347 10.2865 14.5597 9.49618 13.9577 8.89621C13.5739 8.51269 13.1099 8.21902 12.599 8.03636C12.0881 7.85369 11.5431 7.78657 11.0032 7.83983C10.4632 7.89308 9.94182 8.06539 9.47647 8.34434C9.01113 8.62329 8.61341 9.00196 8.31197 9.45306C8.01053 9.90417 7.81286 10.4165 7.73319 10.9532C7.65351 11.4898 7.69382 12.0375 7.85121 12.5567C8.0086 13.076 8.27915 13.5538 8.64339 13.9559C9.00763 14.358 9.4565 14.6744 9.95767 14.8822ZM7.36467 7.49321C7.8897 6.96819 8.51299 6.55171 9.19897 6.26757C9.88495 5.98343 10.6202 5.83718 11.3627 5.83718C12.1052 5.83718 12.8404 5.98343 13.5264 6.26757C14.2124 6.55171 14.8356 6.96819 15.3607 7.49321C15.8857 8.01824 16.3022 8.64153 16.5863 9.32751C16.8705 10.0135 17.0167 10.7487 17.0167 11.4912C17.0167 12.2337 16.8705 12.9689 16.5863 13.6549C16.3022 14.3409 15.8857 14.9642 15.3607 15.4892C14.3003 16.5495 12.8622 17.1452 11.3627 17.1452C9.86313 17.1452 8.42501 16.5495 7.36467 15.4892C6.30434 14.4289 5.70865 12.9908 5.70865 11.4912C5.70865 9.99167 6.30434 8.55355 7.36467 7.49321ZM18.2707 6.67921C18.4008 6.55648 18.5049 6.40889 18.577 6.24518C18.649 6.08148 18.6875 5.90498 18.6901 5.72614C18.6927 5.5473 18.6594 5.36976 18.5922 5.20402C18.5249 5.03828 18.4251 4.88772 18.2986 4.76125C18.1722 4.63478 18.0216 4.53497 17.8559 4.46773C17.6901 4.40049 17.5126 4.36719 17.3337 4.36979C17.1549 4.3724 16.9784 4.41086 16.8147 4.48291C16.651 4.55495 16.5034 4.65911 16.3807 4.78921C16.142 5.04224 16.0113 5.37833 16.0164 5.72614C16.0214 6.07395 16.1619 6.40609 16.4078 6.65205C16.6538 6.89802 16.9859 7.03844 17.3337 7.04351C17.6815 7.04858 18.0176 6.9179 18.2707 6.67921Z" fill="white"/>
</svg>
