<svg width="25" height="25" viewBox="0 0 25 25" fill="none" xmlns="http://www.w3.org/2000/svg">
<path d="M5.34559 7.6885C6.55399 7.6885 7.53359 6.7089 7.53359 5.5005C7.53359 4.2921 6.55399 3.3125 5.34559 3.3125C4.13719 3.3125 3.15759 4.2921 3.15759 5.5005C3.15759 6.7089 4.13719 7.6885 5.34559 7.6885Z" fill="white"/>
<path d="M9.59842 9.34687V21.4859H13.3674V15.4829C13.3674 13.8989 13.6654 12.3649 15.6294 12.3649C17.5664 12.3649 17.5904 14.1759 17.5904 15.5829V21.4869H21.3614V14.8299C21.3614 11.5599 20.6574 9.04688 16.8354 9.04688C15.0004 9.04688 13.7704 10.0539 13.2674 11.0069H13.2164V9.34687H9.59842ZM3.45642 9.34687H7.23142V21.4859H3.45642V9.34687Z" fill="white"/>
</svg>
