<svg width="25" height="29" viewBox="0 0 25 29" fill="none" xmlns="http://www.w3.org/2000/svg">
<path d="M12.5 14.2676C13.325 14.2676 14.0315 13.9932 14.6195 13.4444C15.2065 12.8965 15.5 12.2376 15.5 11.4676C15.5 10.6976 15.2065 10.0382 14.6195 9.48938C14.0315 8.94151 13.325 8.66758 12.5 8.66758C11.675 8.66758 10.969 8.94151 10.382 9.48938C9.794 10.0382 9.5 10.6976 9.5 11.4676C9.5 12.2376 9.794 12.8965 10.382 13.4444C10.969 13.9932 11.675 14.2676 12.5 14.2676ZM12.5 28.2676C8.475 25.0709 5.469 22.1015 3.482 19.3594C1.494 16.6182 0.5 14.0809 0.5 11.7476C0.5 8.24758 1.7065 5.45924 4.1195 3.38258C6.5315 1.30591 9.325 0.267578 12.5 0.267578C15.675 0.267578 18.4685 1.30591 20.8805 3.38258C23.2935 5.45924 24.5 8.24758 24.5 11.7476C24.5 14.0809 23.5065 16.6182 21.5195 19.3594C19.5315 22.1015 16.525 25.0709 12.5 28.2676Z" fill="#74604B"/>
</svg>
