<svg width="25" height="25" viewBox="0 0 25 25" fill="none" xmlns="http://www.w3.org/2000/svg">
<g clip-path="url(#clip0_320_3902)">
<path fill-rule="evenodd" clip-rule="evenodd" d="M3.32723 1.03381C3.58969 0.771743 3.90485 0.568448 4.25183 0.437395C4.5988 0.306343 4.96966 0.250526 5.33984 0.273645C5.71002 0.296763 6.07105 0.398288 6.39902 0.571492C6.727 0.744696 7.01441 0.985624 7.24223 1.27831L9.93473 4.73731C10.4282 5.37181 10.6022 6.19831 10.4072 6.97831L9.58673 10.2633C9.54431 10.4335 9.5466 10.6117 9.59338 10.7807C9.64017 10.9497 9.72985 11.1037 9.85373 11.2278L13.5392 14.9133C13.6635 15.0374 13.8178 15.1273 13.9871 15.1741C14.1563 15.2209 14.3349 15.223 14.5052 15.1803L17.7887 14.3598C18.1737 14.2636 18.5754 14.2561 18.9636 14.3379C19.3519 14.4198 19.7164 14.5889 20.0297 14.8323L23.4887 17.5233C24.7322 18.4908 24.8462 20.3283 23.7332 21.4398L22.1822 22.9908C21.0722 24.1008 19.4132 24.5883 17.8667 24.0438C13.9085 22.6511 10.3146 20.3851 7.35173 17.4138C4.38066 14.4513 2.11464 10.858 0.72173 6.90031C0.17873 5.35531 0.66623 3.69481 1.77623 2.58481L3.32723 1.03381Z" fill="#74604B"/>
</g>
<defs>
<clipPath id="clip0_320_3902">
<rect width="24" height="24" fill="white" transform="translate(0.5 0.267578)"/>
</clipPath>
</defs>
</svg>
