<svg width="75" height="84" viewBox="0 0 75 84" fill="none" xmlns="http://www.w3.org/2000/svg">
<g filter="url(#filter0_d_164_187)">
<path d="M29.8088 25.0203L26.7129 19.8927C25.5519 18.0061 23.2542 16.9419 21.1015 17.5707C17.8605 18.5382 16.6028 22.1904 18.2233 24.8752L21.416 30.1238C21.7788 30.6801 22.5286 30.8736 23.0849 30.535L29.3977 26.6892C29.9782 26.3264 30.1717 25.5766 29.8088 25.0203Z" fill="white"/>
</g>
<g filter="url(#filter1_d_164_187)">
<path d="M56.2215 47.5383L49.425 38.3473C47.0547 35.1546 42.9429 33.655 39.073 34.695C39.073 34.6709 39.0488 34.6709 39.0488 34.6467L35.0337 28.0436C34.3081 26.9068 32.8085 26.544 31.6717 27.2455L23.2789 32.3489C22.1179 33.0261 21.7551 34.5499 22.4565 35.7109L26.4474 42.314C26.4474 42.314 26.4474 42.3381 26.4715 42.3381C23.7868 45.3131 23.2063 49.6426 24.9961 53.2465L30.027 63.5018C31.575 66.6702 35.2272 67.8796 38.3232 66.2833C38.565 66.1623 38.6376 65.8721 38.4925 65.6302L34.7193 59.39C34.1872 58.5192 34.4532 57.4066 35.324 56.8503C36.1947 56.3424 37.3073 56.6085 37.8636 57.455L41.661 63.6953C41.8061 63.9129 42.0963 63.9855 42.314 63.8646L44.636 62.4617C44.8537 62.3166 44.9262 62.0264 44.8053 61.8087L41.0079 55.5684C40.5 54.6977 40.7661 53.5851 41.6126 53.0288C42.5075 52.5209 43.6201 52.7869 44.1522 53.6335L47.9496 59.8737C48.0947 60.0914 48.385 60.1639 48.6026 60.043L50.9246 58.6402C51.1423 58.495 51.2148 58.2048 51.0939 57.9871L47.2965 51.7469C46.7886 50.8761 47.0547 49.7635 47.9012 49.2072C48.7961 48.6993 49.9087 48.9654 50.4408 49.8119L54.2624 56.028C54.4075 56.2457 54.6978 56.3182 54.9154 56.1731C57.7211 54.1656 58.35 50.3924 56.2215 47.5383Z" fill="white"/>
</g>
<defs>
<filter id="filter0_d_164_187" x="0.932213" y="0.804161" width="45.6453" height="46.4837" filterUnits="userSpaceOnUse" color-interpolation-filters="sRGB">
<feFlood flood-opacity="0" result="BackgroundImageFix"/>
<feColorMatrix in="SourceAlpha" type="matrix" values="0 0 0 0 0 0 0 0 0 0 0 0 0 0 0 0 0 0 127 0" result="hardAlpha"/>
<feOffset/>
<feGaussianBlur stdDeviation="8.29268"/>
<feComposite in2="hardAlpha" operator="out"/>
<feColorMatrix type="matrix" values="0 0 0 0 1 0 0 0 0 1 0 0 0 0 1 0 0 0 0.46 0"/>
<feBlend mode="normal" in2="BackgroundImageFix" result="effect1_dropShadow_164_187"/>
<feBlend mode="normal" in="SourceGraphic" in2="effect1_dropShadow_164_187" result="shape"/>
</filter>
<filter id="filter1_d_164_187" x="5.51424" y="10.3022" width="68.5604" height="73.2685" filterUnits="userSpaceOnUse" color-interpolation-filters="sRGB">
<feFlood flood-opacity="0" result="BackgroundImageFix"/>
<feColorMatrix in="SourceAlpha" type="matrix" values="0 0 0 0 0 0 0 0 0 0 0 0 0 0 0 0 0 0 127 0" result="hardAlpha"/>
<feOffset/>
<feGaussianBlur stdDeviation="8.29268"/>
<feComposite in2="hardAlpha" operator="out"/>
<feColorMatrix type="matrix" values="0 0 0 0 1 0 0 0 0 1 0 0 0 0 1 0 0 0 0.46 0"/>
<feBlend mode="normal" in2="BackgroundImageFix" result="effect1_dropShadow_164_187"/>
<feBlend mode="normal" in="SourceGraphic" in2="effect1_dropShadow_164_187" result="shape"/>
</filter>
</defs>
</svg>
