<svg width="77" height="82" viewBox="0 0 77 82" fill="none" xmlns="http://www.w3.org/2000/svg">
<g filter="url(#filter0_d_164_196)">
<path d="M53.8842 25.8827L25.4887 54.2783C24.4244 55.3425 22.6346 55.1974 21.7639 53.9396C18.7647 49.5618 16.999 44.3858 16.999 39.0646V28.4466C16.999 26.4632 18.4986 24.2138 20.3368 23.464L33.809 17.9494C36.8565 16.6917 40.2427 16.6917 43.2903 17.9494L53.086 21.9402C54.6824 22.5933 55.0935 24.6734 53.8842 25.8827Z" fill="white"/>
</g>
<g filter="url(#filter1_d_164_196)">
<path d="M56.1568 29.1964C57.729 27.8661 60.1235 29.0029 60.1235 31.0588V39.0647C60.1235 50.8921 51.5371 61.9698 39.8064 65.2108C39.0083 65.4285 38.1375 65.4285 37.3152 65.2108C33.8806 64.2433 30.6879 62.6228 27.9548 60.4944C26.7938 59.5994 26.6729 57.9064 27.6887 56.8663C32.9615 51.4726 48.3928 35.7511 56.1568 29.1964Z" fill="white"/>
</g>
<defs>
<filter id="filter0_d_164_196" x="0.413658" y="0.420738" width="70.7576" height="71.1538" filterUnits="userSpaceOnUse" color-interpolation-filters="sRGB">
<feFlood flood-opacity="0" result="BackgroundImageFix"/>
<feColorMatrix in="SourceAlpha" type="matrix" values="0 0 0 0 0 0 0 0 0 0 0 0 0 0 0 0 0 0 127 0" result="hardAlpha"/>
<feOffset/>
<feGaussianBlur stdDeviation="8.29268"/>
<feComposite in2="hardAlpha" operator="out"/>
<feColorMatrix type="matrix" values="0 0 0 0 1 0 0 0 0 1 0 0 0 0 1 0 0 0 0.46 0"/>
<feBlend mode="normal" in2="BackgroundImageFix" result="effect1_dropShadow_164_196"/>
<feBlend mode="normal" in="SourceGraphic" in2="effect1_dropShadow_164_196" result="shape"/>
</filter>
<filter id="filter1_d_164_196" x="10.4137" y="12.038" width="66.2948" height="69.9215" filterUnits="userSpaceOnUse" color-interpolation-filters="sRGB">
<feFlood flood-opacity="0" result="BackgroundImageFix"/>
<feColorMatrix in="SourceAlpha" type="matrix" values="0 0 0 0 0 0 0 0 0 0 0 0 0 0 0 0 0 0 127 0" result="hardAlpha"/>
<feOffset/>
<feGaussianBlur stdDeviation="8.29268"/>
<feComposite in2="hardAlpha" operator="out"/>
<feColorMatrix type="matrix" values="0 0 0 0 1 0 0 0 0 1 0 0 0 0 1 0 0 0 0.46 0"/>
<feBlend mode="normal" in2="BackgroundImageFix" result="effect1_dropShadow_164_196"/>
<feBlend mode="normal" in="SourceGraphic" in2="effect1_dropShadow_164_196" result="shape"/>
</filter>
</defs>
</svg>
