<svg width="25" height="24" viewBox="0 0 25 24" fill="none" xmlns="http://www.w3.org/2000/svg">
<path d="M24.4471 1.02871C24.5017 0.892413 24.515 0.743103 24.4855 0.599288C24.456 0.455474 24.385 0.32348 24.2812 0.21967C24.1774 0.11586 24.0454 0.0448002 23.9015 0.015299C23.7577 -0.0142021 23.6084 -0.000846891 23.4721 0.0537091L1.65162 8.78221H1.65012L0.972125 9.05221C0.84371 9.10343 0.731953 9.18915 0.649198 9.2999C0.566443 9.41066 0.515912 9.54213 0.503185 9.67979C0.490458 9.81746 0.516031 9.95597 0.57708 10.08C0.638129 10.2041 0.732277 10.3088 0.849125 10.3827L1.46412 10.7727L1.46562 10.7757L8.95812 15.5427L13.7251 23.0352L13.7281 23.0382L14.1181 23.6532C14.1923 23.7696 14.2971 23.8633 14.421 23.924C14.545 23.9846 14.6833 24.0099 14.8207 23.997C14.9581 23.9842 15.0892 23.9336 15.1998 23.851C15.3103 23.7684 15.3959 23.6569 15.4471 23.5287L24.4471 1.02871ZM21.6976 3.86371L10.4566 15.1047L10.1341 14.5977C10.075 14.5047 9.99616 14.4258 9.90312 14.3667L9.39612 14.0442L20.6371 2.80321L22.4041 2.09671L21.6991 3.86371H21.6976Z" fill="#EEEEEE"/>
</svg>
