<svg width="25" height="24" viewBox="0 0 25 24" fill="none" xmlns="http://www.w3.org/2000/svg">
<path d="M17.8627 3.5H7.86267C4.86267 3.5 2.86267 5 2.86267 8.5V15.5C2.86267 19 4.86267 20.5 7.86267 20.5H17.8627C20.8627 20.5 22.8627 19 22.8627 15.5V8.5C22.8627 5 20.8627 3.5 17.8627 3.5ZM18.3327 9.59L15.2027 12.09C14.5427 12.62 13.7027 12.88 12.8627 12.88C12.0227 12.88 11.1727 12.62 10.5227 12.09L7.39267 9.59C7.07267 9.33 7.02267 8.85 7.27267 8.53C7.53267 8.21 8.00267 8.15 8.32267 8.41L11.4527 10.91C12.2127 11.52 13.5027 11.52 14.2627 10.91L17.3927 8.41C17.7127 8.15 18.1927 8.2 18.4427 8.53C18.7027 8.85 18.6527 9.33 18.3327 9.59Z" fill="white"/>
</svg>
