<svg width="85" height="73" viewBox="0 0 85 73" fill="none" xmlns="http://www.w3.org/2000/svg">
<g filter="url(#filter0_d_164_178)">
<path d="M51.6273 19.7701L55.0376 26.5908C55.4972 27.5341 56.7307 28.429 57.7708 28.6225L63.9384 29.6384C67.8809 30.2914 68.8 33.1455 65.9701 35.9995L61.1569 40.8127C60.3588 41.6109 59.8992 43.1831 60.1653 44.3199L61.5439 50.2699C62.6323 54.9621 60.1169 56.8003 55.9809 54.3333L50.2002 50.8987C49.1602 50.2699 47.4187 50.2699 46.3787 50.8987L40.598 54.3333C36.462 56.7762 33.9466 54.9621 35.035 50.2699L36.4136 44.3199C36.6313 43.1589 36.1718 41.5867 35.3736 40.7886L30.5604 35.9753C27.7305 33.1455 28.6496 30.2914 32.5921 29.6142L38.7598 28.5983C39.7998 28.429 41.0334 27.5099 41.4929 26.5666L44.9033 19.7459C46.7657 16.0695 49.7649 16.0695 51.6273 19.7701Z" fill="white"/>
</g>
<g filter="url(#filter1_d_164_178)">
<path d="M33.752 21.0762H19.2398C18.2481 21.0762 17.4258 20.2538 17.4258 19.2621C17.4258 18.2705 18.2481 17.4481 19.2398 17.4481H33.752C34.7437 17.4481 35.566 18.2705 35.566 19.2621C35.566 20.2538 34.7437 21.0762 33.752 21.0762Z" fill="white"/>
</g>
<g filter="url(#filter2_d_164_178)">
<path d="M26.4959 54.938H19.2398C18.2481 54.938 17.4258 54.1156 17.4258 53.124C17.4258 52.1323 18.2481 51.3099 19.2398 51.3099H26.4959C27.4876 51.3099 28.3099 52.1323 28.3099 53.124C28.3099 54.1156 27.4876 54.938 26.4959 54.938Z" fill="white"/>
</g>
<g filter="url(#filter3_d_164_178)">
<path d="M21.6585 38.0071H19.2398C18.2481 38.0071 17.4258 37.1847 17.4258 36.1931C17.4258 35.2014 18.2481 34.379 19.2398 34.379H21.6585C22.6502 34.379 23.4725 35.2014 23.4725 36.1931C23.4725 37.1847 22.6502 38.0071 21.6585 38.0071Z" fill="white"/>
</g>
<defs>
<filter id="filter0_d_164_178" x="12.3316" y="0.406212" width="71.867" height="71.6096" filterUnits="userSpaceOnUse" color-interpolation-filters="sRGB">
<feFlood flood-opacity="0" result="BackgroundImageFix"/>
<feColorMatrix in="SourceAlpha" type="matrix" values="0 0 0 0 0 0 0 0 0 0 0 0 0 0 0 0 0 0 127 0" result="hardAlpha"/>
<feOffset/>
<feGaussianBlur stdDeviation="8.29268"/>
<feComposite in2="hardAlpha" operator="out"/>
<feColorMatrix type="matrix" values="0 0 0 0 1 0 0 0 0 1 0 0 0 0 1 0 0 0 0.46 0"/>
<feBlend mode="normal" in2="BackgroundImageFix" result="effect1_dropShadow_164_178"/>
<feBlend mode="normal" in="SourceGraphic" in2="effect1_dropShadow_164_178" result="shape"/>
</filter>
<filter id="filter1_d_164_178" x="0.840416" y="0.862755" width="51.3114" height="36.7988" filterUnits="userSpaceOnUse" color-interpolation-filters="sRGB">
<feFlood flood-opacity="0" result="BackgroundImageFix"/>
<feColorMatrix in="SourceAlpha" type="matrix" values="0 0 0 0 0 0 0 0 0 0 0 0 0 0 0 0 0 0 127 0" result="hardAlpha"/>
<feOffset/>
<feGaussianBlur stdDeviation="8.29268"/>
<feComposite in2="hardAlpha" operator="out"/>
<feColorMatrix type="matrix" values="0 0 0 0 1 0 0 0 0 1 0 0 0 0 1 0 0 0 0.46 0"/>
<feBlend mode="normal" in2="BackgroundImageFix" result="effect1_dropShadow_164_178"/>
<feBlend mode="normal" in="SourceGraphic" in2="effect1_dropShadow_164_178" result="shape"/>
</filter>
<filter id="filter2_d_164_178" x="0.840416" y="34.7246" width="44.0545" height="36.7988" filterUnits="userSpaceOnUse" color-interpolation-filters="sRGB">
<feFlood flood-opacity="0" result="BackgroundImageFix"/>
<feColorMatrix in="SourceAlpha" type="matrix" values="0 0 0 0 0 0 0 0 0 0 0 0 0 0 0 0 0 0 127 0" result="hardAlpha"/>
<feOffset/>
<feGaussianBlur stdDeviation="8.29268"/>
<feComposite in2="hardAlpha" operator="out"/>
<feColorMatrix type="matrix" values="0 0 0 0 1 0 0 0 0 1 0 0 0 0 1 0 0 0 0.46 0"/>
<feBlend mode="normal" in2="BackgroundImageFix" result="effect1_dropShadow_164_178"/>
<feBlend mode="normal" in="SourceGraphic" in2="effect1_dropShadow_164_178" result="shape"/>
</filter>
<filter id="filter3_d_164_178" x="0.840416" y="17.7937" width="39.2176" height="36.7988" filterUnits="userSpaceOnUse" color-interpolation-filters="sRGB">
<feFlood flood-opacity="0" result="BackgroundImageFix"/>
<feColorMatrix in="SourceAlpha" type="matrix" values="0 0 0 0 0 0 0 0 0 0 0 0 0 0 0 0 0 0 127 0" result="hardAlpha"/>
<feOffset/>
<feGaussianBlur stdDeviation="8.29268"/>
<feComposite in2="hardAlpha" operator="out"/>
<feColorMatrix type="matrix" values="0 0 0 0 1 0 0 0 0 1 0 0 0 0 1 0 0 0 0.46 0"/>
<feBlend mode="normal" in2="BackgroundImageFix" result="effect1_dropShadow_164_178"/>
<feBlend mode="normal" in="SourceGraphic" in2="effect1_dropShadow_164_178" result="shape"/>
</filter>
</defs>
</svg>
