<svg width="25" height="25" viewBox="0 0 25 25" fill="none" xmlns="http://www.w3.org/2000/svg">
<path d="M22.8627 12.4252C22.8627 12.3736 22.8627 12.3151 22.8603 12.2471C22.858 12.0572 22.8533 11.844 22.8486 11.6166C22.8299 10.9627 22.797 10.3111 22.7455 9.69708C22.6752 8.85098 22.572 8.14551 22.4314 7.61583C22.283 7.06305 21.9921 6.55891 21.5878 6.15378C21.1835 5.74866 20.68 5.45675 20.1275 5.30723C19.4642 5.1291 18.1658 5.01895 16.3377 4.95098C15.4681 4.91816 14.5377 4.89707 13.6072 4.88535C13.2814 4.88066 12.9791 4.87832 12.7072 4.87598H12.0181C11.7463 4.87832 11.4439 4.88066 11.1181 4.88535C10.1877 4.89707 9.2572 4.91816 8.38767 4.95098C6.55955 5.02129 5.25876 5.13145 4.59783 5.30723C4.04517 5.45638 3.54143 5.74817 3.13707 6.15335C2.73272 6.55853 2.44195 7.06287 2.29392 7.61583C2.15095 8.14551 2.05017 8.85098 1.97986 9.69708C1.9283 10.3111 1.89548 10.9627 1.87673 11.6166C1.8697 11.844 1.86736 12.0572 1.86501 12.2471C1.86501 12.3151 1.86267 12.3736 1.86267 12.4252V12.5565C1.86267 12.608 1.86267 12.6666 1.86501 12.7346C1.86736 12.9244 1.87205 13.1377 1.87673 13.3651C1.89548 14.019 1.9283 14.6705 1.97986 15.2846C2.05017 16.1307 2.1533 16.8362 2.29392 17.3658C2.59392 18.4885 3.47517 19.3744 4.59783 19.6744C5.25876 19.8526 6.55955 19.9627 8.38767 20.0307C9.2572 20.0635 10.1877 20.0846 11.1181 20.0963C11.4439 20.101 11.7463 20.1034 12.0181 20.1057H12.7072C12.9791 20.1034 13.2814 20.101 13.6072 20.0963C14.5377 20.0846 15.4681 20.0635 16.3377 20.0307C18.1658 19.9604 19.4666 19.8502 20.1275 19.6744C21.2502 19.3744 22.1314 18.4908 22.4314 17.3658C22.5744 16.8362 22.6752 16.1307 22.7455 15.2846C22.797 14.6705 22.8299 14.019 22.8486 13.3651C22.8556 13.1377 22.858 12.9244 22.8603 12.7346C22.8603 12.6666 22.8627 12.608 22.8627 12.5565V12.4252ZM21.1752 12.5471C21.1752 12.5963 21.1752 12.6502 21.1728 12.7135C21.1705 12.8963 21.1658 13.0979 21.1611 13.3158C21.1447 13.9393 21.1119 14.5627 21.0627 15.1416C20.9994 15.8963 20.9103 16.5151 20.8002 16.9299C20.6549 17.4713 20.2283 17.9002 19.6892 18.0432C19.197 18.1744 17.9572 18.2799 16.272 18.3432C15.4189 18.376 14.5002 18.3971 13.5838 18.4088C13.2627 18.4135 12.965 18.4158 12.6978 18.4158H12.0275L11.1416 18.4088C10.2252 18.3971 9.30876 18.376 8.4533 18.3432C6.76814 18.2776 5.52595 18.1744 5.03611 18.0432C4.49705 17.8979 4.07048 17.4713 3.92517 16.9299C3.81501 16.5151 3.72595 15.8963 3.66267 15.1416C3.61345 14.5627 3.58298 13.9393 3.56423 13.3158C3.5572 13.0979 3.55486 12.894 3.55251 12.7135C3.55251 12.6502 3.55017 12.594 3.55017 12.5471V12.4346C3.55017 12.3854 3.55017 12.3315 3.55251 12.2682C3.55486 12.0854 3.55955 11.8838 3.56423 11.6658C3.58064 11.0424 3.61345 10.419 3.66267 9.84005C3.72595 9.08536 3.81501 8.46661 3.92517 8.05176C4.07048 7.51036 4.49705 7.08145 5.03611 6.93848C5.5283 6.80723 6.76814 6.70176 8.4533 6.63848C9.30642 6.60567 10.2252 6.58457 11.1416 6.57285C11.4627 6.56817 11.7603 6.56582 12.0275 6.56582H12.6978L13.5838 6.57285C14.5002 6.58457 15.4166 6.60567 16.272 6.63848C17.9572 6.7041 19.1994 6.80723 19.6892 6.93848C20.2283 7.08379 20.6549 7.51036 20.8002 8.05176C20.9103 8.46661 20.9994 9.08536 21.0627 9.84005C21.1119 10.419 21.1424 11.0424 21.1611 11.6658C21.1681 11.8838 21.1705 12.0877 21.1728 12.2682C21.1728 12.3315 21.1752 12.3877 21.1752 12.4346V12.5471ZM10.2767 15.6315L15.7142 12.4674L10.2767 9.3502V15.6315Z" fill="white"/>
</svg>
